/* XPM */
static char *_c961d6d2b7d49e2a43092429fe576f0OzGlNScqqr8ymfuj[] = {
/* columns rows colors chars-per-pixel */
"64 64 42 1 ",
"  c black",
". c #181818",
"X c #182118",
"o c #28200C",
"O c #302410",
"+ c #202020",
"@ c #282828",
"# c #293121",
"$ c #313929",
"% c gray19",
"& c #343434",
"* c #403018",
"= c #483818",
"- c #543C1C",
"; c #394A39",
": c #425239",
"> c #6C4824",
", c #744C28",
"< c gray25",
"1 c #484848",
"2 c #4C4C4C",
"3 c #4A5242",
"4 c #525A4A",
"5 c gray36",
"6 c #637352",
"7 c #646464",
"8 c #6B7B63",
"9 c gray44",
"0 c #7C7C7C",
"q c #80502C",
"w c #885830",
"e c #9C6038",
"r c #A86840",
"t c #B47044",
"y c #BC7848",
"u c #C87C4C",
"i c #D08050",
"p c #E88C58",
"a c gray55",
"s c #989898",
"d c gray66",
"f c #B4B4B4",
/* pixels */
"+888888888888880888800888888 +8888000088888 +888888888888 80088 ",
"+880sfdssa88800048880s88488: +080880008as08 +88888808488: 8aa83 ",
"+8ssaauss84480sp88888as8888: +s04888088a083 +84844eyew44; afd8: ",
"+ada9aetu4448eyy4484er08844$ +0844we08a04:# +4884qww,>3;X wt95= ",
"+0a8wettew480reww884ee0ew4:# +a084>w44w:3;. +308qq,>ww8;. >q5-@ ",
"+48wweryewwrtaarwaawerewq4;X +s8reqww:>>;$. +300tewww,--o yi91@ ",
"+:4eweyaewuyrr0ur0tewwwq>;#. +8:>rrrr>q>:$. +808trrte>>,* r0,*. ",
"+u9wqetererwtwwytqeeqqw,-;#. +8-qytrq-,>-$. +8aayyutewq,O 5w2%. ",
"+a0ewwe99w90eqqqqqwq>,w--4$. +yqeyyt,->,-&+ +:3aerew5977% ==O+. ",
"+wtw,w57wq5075>->>>-->q,-1-X +r,wwwwwwqq,=o +$:ewertww79%       ",
"+rrqqq>>-&>5---2>--&->qq>,-X +w-,=-,e,-,q-O +44ter0w5255@ 884:; ",
"+te,q>><-<&O=<2,-----5qq>5-X +wwwwqq5->wq-* +00y0y9w7qw-o as88; ",
"+rww,->,5211>,>q--,7,>w,>-=. +etewqw5wwe,-o +8809y0w,44:o 8885% ",
"+95q>,q5,,5qq,-->q7q,>q,-=oo +ryrw>5www,>*o +880w999544;o ew2&o ",
"+22>->-===-*-25->5-==<-***oo +ww--*-,----oo +488w75e9884# w,=@. ",
"+<&=@@oooo.oo@%oo%*Oooooooo  +=-OoooOoOoo   +08>5a999983# ,2@.  ",
"+                            +              +y8;40ww,q44#       ",
"44:88444;80463;++++++++++++++++++++++++++++++8044twwq,:;# aa0984",
":38848844383::$ ++8844888a848448+++40s8484:;+a044www>,:;# 8s088w",
"=,e8343::44444# +88088aa08888884$++8fs44883# 8083qew5,3:# 8a8yw*",
"5w7w-;;;8wq88:# +a88448084888043#++0s4444,=@ 484wwq75,3:# ad8e-<",
"990e->88w>w84;X :8434w444488e84;X +0e>>q>-*o 4448w,-=-:;# 44>--w",
"w9rw5w84--5,5;X 48:48e484:wew43#X +8-*---Ooo :843-=@25;#X ;:w-->",
"00rwq5;w----5;X :8weeee84;,qqq;#X +>-oooooo  8s8;%=19q>&o $4rq-e",
"utw,-,ww>--,5-# 4reewwe84;>qwq;;# ++         fs3-59w7,,$. 34e,-r",
"yut9,,w,-->>,>O 3ew>>,>443>>q,::$ 00448844; +434wwwrweq;X 8arr,9",
"aiia,>q,>--,>=o ;ww-=>5q>>-->>>;# 80888844; +3,qwq5ww9,;X 6a0tyy",
"yaaw-->->--=--o 4w,>q75>---->,q;X 0838844:# +ayqwq,75,:;X 88eadu",
"auq=*>q5----4:. 4q,>2557,>=-,9,># s04weq:;# +8e>,q5w,>3;. 0e0a0a",
"ua-=>ewq--->4;. :q-q->w,q5>>qww-# aaewew,;X +4w>>w7r-*4:X 8ee>wu",
"ye>>ww>>-2>,4;#  q>->>7qqqww,>q-o uew-,q,;. +3--qe0w-=q>. 8e--ey",
"tw,,>>>,->>>:$.  -->,,,>q,ww,>>*o e>-=--q-# +3-,wew>-5,-o urqq90",
"rq>--q5,----;;X +-----,---,,>-*oo qwqqw-w,# +8pie=-wq7q>* rw7e9t",
"w,>2-1->-=--:;X ++*OooOOo*=OOooo  ,wqwe>w,X +4uuw,ra7792@ awww0y",
"w>>-,-<---->:## +++               weww->>=. +wiwqtaa,w92O yde70a",
"eq->>--->>>q:$X ++80aas08488:;;#++yytw=w=** +rpwera07r0,* fdewe0",
"ww>-*-<--->>-=o ++0ss004884434:; +uar>*,**o +df,--q,90e5% aeewww",
"q>*O--=->,q>-%+ ++8ttrwq444434:$ +uyw,,,=-O +ii--weq9w,-@ 5-wwwe",
">5*->2-->,---*o ++wree,>,,3344;# +ewe,w,,,< +e,>qrtq,995@ arw,q5",
"--=---==--***Oo ++ew>,>-,--,q;#. +-qwww,97= +ur,eerw->77@ req-O-",
"+ooOOoo+oooooo  ++ww1--=-*=--#.. +-wewe,>-* +daqrr,2=-95@ >1*oo.",
"                ++q-=OoOoooooo   +ew>ee>e,O +daqw>=-575-o +     ",
"++++++884:44884480+              +tewwqwe>o +t05----55<%. +483;+",
"++8880884444488800884443$+++++++++errwqew-o +>5*OoOO%@+.  +45,-+",
"++4088w8434844488884884;# +8aa83++rrwwwwq-o ++            +3>-*+",
"++8088e888648444884444;#. +8084; +wq-*---*o ++++++++++++++++++++",
"++8ytwwe884484w9ee443;;#X +tar4; +-=Ooooooo ++40a000440aa048088+",
"++autwqterw44407www4;;;#. +eaw;# ++         ++4saa84448a0880834 ",
"++iewqeptuy8480w,w7q>-;#. +-w-#. +4888483484++dds8848800aas888; ",
"++ewwwrptte486qq5w7w--;;X +q5-@o +808844843; +sa084488r888833;$ ",
"++wreeeytewwwwqw,900q-;:# +q-ooo +8884::3--o +dd84844tr484:4:;# ",
"++werwwwqwe,qe9r909,qq:## ++     +,-==*O*ooo +a00e7ewtrr8:;44:# ",
"++eewwq,ww>,55te07q,,5;#X ++++++++           +88aayt9etrq,,5-;# ",
"++eeqeeqe,,e52w5,,,,wq-;X +8484443;488aa808;++8t0aiay2rw-25w,;X ",
"++yurweweee07>q>,q55w,>;X +48880a8;4880a844: +iyaiayaaa>=15q2;X ",
"++tteewqet7,q-,>555-2--;# +448y8884884444;4; +ypiitt0qw-1>>q,$. ",
"++rrw,wweq,755-15,,---,:. +4atrw884w8::4844# +tprre7->221-5wq2@ ",
"++w,=,eew>,w>,>1>>--ww>O. +8aawqqrwqq>484:;X +puqtyw*-=<55qq,-@ ",
"++w>>rww,->,>>-->>>>ww*o. +piyrwqy0,>>>qw:;X +pywat7->222>q7q-o ",
"++aeqw>>--->----5q>>qq=-# +ittrrwrye,>qww4:# +pp9ar7>52-->qww>O ",
"++aeq-->,>,,>->,q5-,wq>># +tyreeeetw>,ew,44X +iue09w75--,wwww-o ",
"++w,,>-->>->,>>5,>,,>->2o +ta0eeeerew,q-=-Oo +ww,qww,--->q>wq-o ",
"++-,q---**->>-=>>,,>-*-&o +wewq,555-*O*--Ooo++99-->-*O*-1--2-oo+",
"&&,>-<*O*O**==O**<<**ooo+&&,q>-=<<*Oo*OoOoo.&&07***%****OO*Oooo@"
};
