/* XPM */
static char *_93639b4cf104559c3d2dc55f73941f8mr7xz9TgygpLnEuz[] = {
/* columns rows colors chars-per-pixel */
"64 64 37 1 ",
"  c black",
". c #181818",
"X c #28200C",
"o c #302410",
"O c #382C14",
"+ c #202020",
"@ c #2E2B22",
"# c #282828",
"$ c #313929",
"% c gray19",
"& c #343434",
"* c gray22",
"= c #403018",
"- c #483818",
"; c #543C1C",
": c #5C4020",
"> c #4C4436",
", c #6C4824",
"< c gray25",
"1 c #484848",
"2 c #4C4C4C",
"3 c #524A42",
"4 c #5E5246",
"5 c gray33",
"6 c gray36",
"7 c #685D4C",
"8 c #646464",
"9 c gray44",
"0 c #7C7C7C",
"q c #885830",
"w c gray55",
"e c #989898",
"r c gray66",
"t c #C0C0C0",
"y c #D0D0D0",
"u c gainsboro",
"i c #ECECEC",
/* pixels */
" XXXXXooOOooo==Oo=@O&===o==oXX. XXooo=o==O===ooXX  XXoO=&&oooX  ",
" X@@--;>--*&=;:;>>>::>:;>>>>@o. Xo%=>>::>,:4>>=@X. XO%*>;>>-*@X ",
" X>>>;qqqqqqqqqqqqqqqqqqqqqqqqqqqqqqqqqqqqqqqqqqqqqqqqqqq=*>>;XX",
" O474>q::::::::::::::::::::::::::::::::::::::::::::::::::=>3>>=X",
" O473=q:================================================:=$444OX",
" o44;&q:=rrrrrrrrrrrrrrrrrrrrrrrrrrrrrrrrrrrrrrrrrrrrrrq:=$>>3o.",
" @44&-q:=rttttttttttttytyytrreertttttttttttttttttttttyyq:=$>;4OX",
" >44;*q:=rttttttttttttyte5%%%%%%*5etyyyttttttttttttttyyq:=$>>>=X",
" ->=-&q:=rttttttttttttr1%%%%%%*<%%%5ryyytttttttttyttyytq:=$::>o ",
" o--==q:=rtttttttttyyw%%%%%%%**<%%%%<wyyyyttttttyyyyytyq:=O-;&oX",
" X&&=Oq:=rtttttttyyyw%%%%%%%***%%%%**%9yyytytyyyyyyyyyyq:=.@@&oX",
" o&&@@q:=rttttttyyyt<%%%%%*<21<<%%%%**%9tyyytyyyyyyyyyyq:=.@O%oX",
" X%%@@q:=rtttyytyyt51<<%%%%%*<<*%%%%<%**8yyyyyyyyyyyyyyq:=X@@@XX",
" XoX+Xq:=rttyyttyy6<689652<<*%%%%%%*%%***ryyyyyyyyyyyyyq:=XooX. ",
"     Xq:=rttyyyyye%69999999982<%%%%%**%%%9yytyyyyyyyyyyq:=  .   ",
"      q:=ryyyyyyy9<99900000000991%%%%%%<<*tyyyyyyyyyyyyq:=      ",
"XXXXX.q:=ryyyyyyt<600900w0wwwwww092*%****<wyyyyyyyyyyyyq:= oXoX.",
"===Oo.q:=ryyyyyyr<900000w00www00ww09<<5**<2yyyyyyuuuuyuq:=.->;OX",
">,:;=Xq:=ryyyyyy020000www0000000wwwe0<29<<1ryyyuyuuuuuuq:=.>3:&o",
">444;Xq:=ryyyyyy529900ww0000000ww00ww9*65<*wyyyuyyuuuyyq:=o=:*$@",
"*>>>;oq:=ryyyyyy<2990wwwewewwewerw0ww9819<*0yyyyyuyuuuuq:=-=;>>-",
"O;=&=oq:=ryyyyyy2590weeeeeewewereeeee99208<wuyuuuuuuuuuq:=o-:&=@",
"@@=-&.q:=ryyyuuu6690eerwwww0w99990wee98669<wuuyuuuuuuuuq:=.>>&@o",
"@==-&Xq:=ryyyuuu969wwew9968861<<<112526999<wuuuuuuuuuuuq:=.>>*=o",
"@--==oq:=ryyyuuue609122<**5901<12<%<2260061weyuuuuuuuuuq:=#;,%=O",
"+@=-*oq:=ruuuuuuy9w65<11115er258e959<20e06515ruuuuuuuuuq:=O:,>==",
"@=---oq:=tuyuuuuu9e9*561990er99ew09589ee96269euuuuuuuuuq:=.=;,;>",
"&>&%@.q:=ruuuuut09ww699889eer990ww000rrw86509ruuuuuuuuuq:=.@&***",
"%@@@@.q:=tuuuuut299e00w99wwer890w00wrrww56509tuuuuuuuuuq:=.@@@@&",
"@@oXX.q:=tyuuuut989ww0w9we0er510reerrww955699uuuuuuuuuuq:=X@@Xo@",
"oooXX q:=tuuuuuur069wewwrw9wr225eeeew0095258wuuuuuuuuuuq:=XoXXoo",
"....  q:=tuuuuuuyw5990wer0wwe655weeee909568wruuuuuuuuuuq:=   ...",
"..... q:=tuuuuuuur8999wrew0ew6<51eww0999259euuuuuuuuuuuq:=    ..",
"=====@q:=tuuuuuuut0999weww*<<*%*6e099996259tuuuuuuuuuuuq:= .@@==",
"4443;-q:=tuuuuuuuuw00weewe<<<%*<5ew0990829yuuuuuuuuuuuuq:= =>>3>",
"44>>>;q:=tuuuuuuuu00wwwwe5*<<***<0ee00965wuuuuuuuuuuuuuq:= @&>>3",
"43>>>;q:=tuuuuuuuuureweer8**<1<<8ere09985ruuuuuuuuuuuuuq:= @&>>3",
">>;-&>q:=tuuuuuuuuiuewerr0<<526656ww99952tuuuuuuuuuuuuuq:= O=>>*",
";;---;q:=tuuuuuuuiuurerrw890w09wew9098956yuuuuuuuuuuuuuq:= O-;>>",
"-;--;-q:=tuuuiuiuuuiteerrrew690ere9w96988uuuuuuuuuuuuuuq:= O=>>&",
"&>:-=&q:=tuuiiuuiiiiieerrrr09980w00w96660yiiuuuuuuuuuuiq:= o==*&",
"&**&&-q:=tuuuiiuuiiiirewereeweww00095<10e0riiuuuuuuuuuuq:= oO@@o",
"&&&&&-q:=tuuuiuuiiiiuy90weerrreew09211wrt62ruuuuuuuuuuuq:= oO@@X",
"->*==&q:=tuuuuuuuuuiuue960eeeeew95<<1wtui666yiiuuuuuuuiq:= o@>>>",
"3::,>*q:=tuuuiiiiiiiiire868000962<*1ruuit5899iiiiiiuuuiq:= O=->3",
";:;---q:=tuuuuiiiiiiiiee9905111<<<2riiii06999wuiiiiiiiiq:= O-=>>",
">;--;*q:=tuuuiiiiiiiiiywe85552552wyiiiiy6690w9euiiiiiiiq:= @&-*&",
">-;>3;q:=tuuuuiiiiiiiitu0w61<<18tiiiiiiw6969w90rtiiiiiiq:= @&=>3",
">->>4;q:=tuuuuuiiiiiiuwiir91<2ruiiiiiiy6686999weyyttuiiq:= @&-37",
",&>3>=q:=tuuiiiuiiiiiw9iiiu2<eiiiiiiiiw6099w9ewweiiutyiq:= @&-37",
"%@>>&@q:=tuuiiuiiiiiew9tiiu<<5uiiiiiiu98069w0ewweiiiiiuq:= @&=&&",
"@%%@@@q:=tuuiiiiiiie0w9riir<<<0iiiiiie6w9900eeewtuiiiiiq:= X@@@@",
"oXoX..q:=tuuuytrre00w0weii9<<<reiiiiu99e9eewrereyiiuiiuq:= .XXXX",
"      q:=tutrerw9wwwwweeiy1118uryiiie0rr9rrrrrrruiiuyuuq:=   ...",
"..... q:=tyrttutreeeeereir1165uiyiiterrretrrtrryiiiiiiiq:=    ..",
"XXXXX.q:=rtuuiyrrrrrrrreiw8909riuuurtyrertttttruiiiiiiiq:=   .XX",
"3>>:;@q:=tuuuurrrrrrrrrru6wwew8iiutyuirttuuuyuruiiiiiiiq:= .X=:,",
"34*&>>q:=tuuutrrrrrrrrrrt0eeew5tiutiiiuuuiiiuituiiiiiiiq:= .@&>3",
"*>**;>q:=tuuurrrrrrrrrtrrwrwwr9wiuuiiiiiiiiiiituiiiiiiiq:= .%>&&",
"==>>=&q:=qqqqqqqqqqqqqqqqqqqqqqqqqqqqqqqqqqqqqqqqqqqqqqq:= .@&&&",
"=-&&&&q::::::::::::::::::::::::::::::::::::::::::::::::::= X@&--",
"&-&&&&q=================================================== o@&;;",
"&&&&@oX    XXXXXX    XX.XXXXXXX   XX.ooX...X.XXoXXo#+XXX   o%oO@",
"X.XX        .XXXX    .X XX X       XXXXXXXXXXXXX. .XoX.     .XXX"
};
