/* XPM */
static char *_697e61badf64a52b72e3d9ecfea45feikE732nTB2x5eAft[] = {
/* columns rows colors chars-per-pixel */
"64 64 51 1 ",
"  c black",
". c #181818",
"X c gray11",
"o c #28200C",
"O c #302410",
"+ c #202020",
"@ c #282828",
"# c gray19",
"$ c #343434",
"% c #400000",
"& c #4C0000",
"* c #580000",
"= c #640000",
"- c #700000",
"; c #7C0000",
": c #403018",
"> c #483818",
", c #543C1C",
"< c #5C4020",
"1 c #6C4824",
"2 c #744C28",
"3 c gray25",
"4 c #484848",
"5 c #4C4C4C",
"6 c gray36",
"7 c #646464",
"8 c gray44",
"9 c #7C7C7C",
"0 c #880000",
"q c #980000",
"w c #A40000",
"e c #B00000",
"r c #BC0000",
"t c #C80000",
"y c #E00000",
"u c #FC2020",
"i c #80502C",
"p c #885830",
"a c #FC4040",
"s c #FC5C5C",
"d c #FC7C7C",
"f c gray55",
"g c #989898",
"h c gray66",
"j c #B4B4B4",
"k c #FC9C9C",
"l c #FCB8B8",
"z c #FCC4A4",
"x c #C0C0C0",
"c c #D0D0D0",
"v c #ECECEC",
/* pixels */
"1,<<1,<<1<i11ip<i1<<<<2<,<1<<<<,<,,1<i<1<<12<<<><,<,<,<1i<21<<io",
"1OO:OoOOOO:oo:,:>:OOoO:OooOOOO:O>OooooOOOoO:oO:O>O:oOoOO:oOOO::o",
"<:oooooooooooooooooooooooooooooooooooooooooooooooooooooooooooo:o",
"<Oo===-;;;;;;;;;;-**=-;;;-====---;-=====*=**=***=;;;-=*%%&*==>Oo",
"1Oo;;;0qwwwq0000qq;;;0qqq0;;;;;;0qq0000q0;;--===-0qqq;;-==-;0<:o",
"<Oo;;;0qqw********************************************;0;-;0q<Oo",
"<Oo000qqqq-yyyyyyyyyyyyyyyyyyyyyyyyyyyyyyyyyyyyyyyyyyaqqqqqqq<oo",
",oo00qwwq0-yyyyyyyyyyyyyyyyyyyyyyyyyyyyyyyyyyyyyyyyyyaqqwwwqq2:o",
"1Oo00qwwq;-yyyyyyyyyyyyyyyyyyyyyyyyyyyyyyyyyyyyyyyyyyaqweewq;,Oo",
"1:oqqqwwq;-yyyyyyyyyyyyyyyyyyyyyyyyyyyyyyyyyyyyyyyyyyaeeewwq-<:o",
"<:oqqqqwq0-yyyyyyyyyyyyyyyyyyyyyyyyyyyyyyyyyyyyyyyyyyaeeewq0-<OO",
"OOoqwqqqq;-yyyyyyyyyyyyyyyyyyyyyyyyyyyyyyyyyyyyyyyyyyaqwwqq0;2:O",
"oooqwwq0;;-yyyyyyyyyyyyyyyyyyyyyyyyyyyyyyyyyyyyyyyyyyawwwwqq0Ooo",
";;;qqqq;-;-yyyyyyyyyyyyyyyyyyyyyyyyyyyyyyyyyyyyyyyyyyaweewqqqq;;",
"--;000;--;-yyyyyyyyyyyyyyyyyyyyyyyyyyyyyyyyyyyyyyyyyyaeeewqqqq0;",
";-;00;;;;0-yyyyyyyyyyyyyyyyyyyyyyyyyyyyyyyyyyyyyyyyyyawewwwqqq0;",
";;;000;0qq-yyyyyyyyyyyyyyyyskllllllksyyyyyyyyyyyyyyyyaqwweeq00;;",
"00000000qw-yyyyyyyyyyyyyakvvvvv66vvvvvkayyyyyyyyyyyyya0qwwq0;;;;",
"000;;0qqqw-yyyyyyyyyyyykvvvvvv6  6vvvvvvkyyyyyyyyyyyya;;00q0;;;0",
"000;0qqqwe-yyyyyyyyyyavvvvvvv6    6vvvvvvvayyyyyyyyyya-=-;qq0;00",
"0qqqwwwwwe-yyyyyyyyysvvvvvvv5      cvvvvvvvsyyyyyyyyya-=-;00q0;;",
"qqqweeeeee-yyyyyyyysvvvvvvv5      xvvvvvvvvvsyyyyyyyya0--;;0qq;0",
"qwweeeeeer-yyyyyyyavvvvvvv5      xvvvvvvvvvvvayyyyyyyaq;--;;qqqq",
"wweeerrrtt-yyyyyyyvvvvvvv5      xvvvvh6vvvvvvvyyyyyyyaq0--;;0qqw",
"eeeerrtttt-yyyyyykvvvvvv5      xvvvvg  5vvvvvvkyyyyyyaq0;;00qqwe",
"eeeeeetttt-yyyyyuvvvvvv4      xvvvvg    4vvvvvvuyyyyya000q0qqqwe",
"eewwweerrr-yyyyydvvvvvh      hvvvvg      4vvvvvdyyyyya0qqqqqwwwe",
"eewqqqwwee-yyyyyvvvvvvvf      xvvg        4vvvvvyyyyyaqqwewwwwww",
"wwwq0qqqqw-yyyysvvvvvvvvf      jg          3vvvvsyyyyawwerewwewq",
"qqwq0qq0;0-yyyykvvv9vvvvvf                  3vvvkyyyyarrrttewwww",
"qqqqq00;;;-yyyylvv3 3vvvvvf          fc.     3vvlyyyyarrrrtrwwww",
"q0;;0;-;;0-yyyylv3   3vvvvvf        fvvc.     3vlyyyyartrreeewww",
"q;==;;-;00-yyyyl6     $vvvvv8      8vvvvc.     8lyyyyarrrreeewqq",
"q0-*=;;0qq-yyyylc.     $vvvj        jvvvvc.   3vlyyyyaeweewqwq0;",
";;;-=-00qq-yyyylvcX     $vj          jvvvvc. 4vvlyyyyawqqqq000;-",
"--;;--;qqq-yyyykvvcX     @            jvvvvc7vvvkyyyyaq000000;0;",
";;;0;=-000-yyyysvvvcX          8g      jvvvvvvvvsyyyyaq0;;;;;-;;",
"000;;=*=;0-yyyyyvvvvc+        8vvg      hvvvvvvvyyyyya00;;--=--;",
"q0;;--**-0-yyyyykvvvvc+      8vvvvg      jvvvvvkyyyyya000;;--;;0",
"qq0---=*=;-yyyyyavvvvvc+    8vvvvc@     +cvvvvvayyyyya000qqq;00;",
"00;----=*--yyyyyyzvvvvvc@  9vvvvc@     @cvvvvvzyyyyyya0qqqqqq0;-",
";---;;--==-yyyyyyuvvvvvvc@9vvvvc@     @cvvvvvvuyyyyyya0qwwwwq0;;",
"----;;;;=*-yyyyyyysvvvvvvvvvvvc+     @cvvvvvvsyyyyyyya0qweewwq;;",
"*=--;;;;-=-yyyyyyyydvvvvvvvvvc+     @cvvvvvvdyyyyyyyyaqwerewqq;;",
"---;;------yyyyyyyyykvvvvvvvc+     #vvvvvvvkyyyyyyyyyaweereewq0;",
";;-;;;-=---yyyyyyyyyydvvvvvvv#    #vvvvvvvdyyyyyyyyyyareerrewwww",
"0;--;;---;-yyyyyyyyyyyacvvvvvv#  #vvvvvvcayyyyyyyyyyyatreeeewwwe",
"w0;--;;;;0-yyyyyyyyyyyyyscvvvvv##vvvvvcsyyyyyyyyyyyyyattreewwqqw",
"wq0;-;0;;0-yyyyyyyyyyyyyyyyskllllllksyyyyyyyyyyyyyyyyatttewwqqqq",
"qq0---;000-yyyyyyyyyyyyyyyyyyyyyyyyyyyyyyyyyyyyyyyyyyatttrwwqqqq",
"0q0;;;;0qq-yyyyyyyyyyyyyyyyyyyyyyyyyyyyyyyyyyyyyyyyyyaetttewqqqq",
"1,Oqqqqqee-yyyyyyyyyyyyyyyyyyyyyyyyyyyyyyyyyyyyyyyyyyawertrwq<,<",
"OOoqwewwee-yyyyyyyyyyyyyyyyyyyyyyyyyyyyyyyyyyyyyyyyyyaqqwereq,O:",
"O:oweeeewe-yyyyyyyyyyyyyyyyyyyyyyyyyyyyyyyyyyyyyyyyyya0qqwrrw<>o",
"<Ooweeeree-yyyyyyyyyyyyyyyyyyyyyyyyyyyyyyyyyyyyyyyyyya0qqweee>Oo",
"1Oowwweree-yyyyyyyyyyyyyyyyyyyyyyyyyyyyyyyyyyyyyyyyyya;0qqqwe<:o",
"<Ooqqqwere-yyyyyyyyyyyyyyyyyyyyyyyyyyyyyyyyyyyyyyyyyya;;0qqqe<Oo",
"<Oo00qqerr-yyyyyyyyyyyyyyyyyyyyyyyyyyyyyyyyyyyyyyyyyya;;00qqe<oo",
",oo-;0qert-sssssssssssssssssssssssssssssssssssssssssss00qqqww2:o",
"1Oo=-;qerttrw0;-;;00qq0qqweeqqwq;;;;;;----;0qqq0;--;0qqqwwqqq,Oo",
"1:o--;qwerrrw0;--;00qqqqqwwwq000;--;;-==---;qqq0;--;;qwweeq0;<:o",
"<:O<,<,,1<i<1<<12<<<><,<,<,<1i<21<<i,ii211,<<1<i11ip<i1<<<<2<,>o",
",OO:O>OooooOOOoO:oO:O>O:oOoOO:oOOO::O>>::OoOOOO:oo:,:>:OOoO:Oooo",
"oooooooooooooooooooooooooooooooooooooooooooooooooooooooooooooooo"
};
