/* XPM */
static char *result[] = {
/* columns rows colors chars-per-pixel */
"64 64 124 2 ",
"   c #010101",
".  c #0A0A0A",
"X  c #140C08",
"o  c #141414",
"O  c #1C1C1D",
"+  c #311E11",
"@  c #332416",
"#  c #3E2717",
"$  c #372812",
"%  c #3A2913",
"&  c #212121",
"*  c #2C2C2C",
"=  c #333333",
"-  c #3E3630",
";  c #3E3E3E",
":  c #442A19",
">  c #4B2E1C",
",  c #43331D",
"<  c #543C1C",
"1  c #4F3922",
"2  c #41362F",
"3  c #543420",
"4  c #593722",
"5  c #563C24",
"6  c #593E26",
"7  c #543B2B",
"8  c #593F2E",
"9  c #423831",
"0  c #4B3D33",
"q  c #503F35",
"w  c #514035",
"e  c #654522",
"r  c #724B27",
"t  c #754C29",
"y  c #7E4E2A",
"u  c #684734",
"i  c #6C4935",
"p  c #774F36",
"a  c #7A5137",
"s  c #7E563D",
"d  c #464646",
"f  c #494949",
"g  c #535353",
"h  c #5C5C5C",
"j  c #646464",
"k  c #6C6C6C",
"l  c #737373",
"z  c #7C7C7C",
"x  c #81512D",
"c  c #88552F",
"v  c #8C5933",
"b  c #8F5B39",
"n  c #955F37",
"m  c #9F643A",
"M  c #A2653B",
"N  c #9E6A45",
"B  c #966A4F",
"V  c #9E6C49",
"C  c #9E704F",
"Z  c #9E7151",
"A  c #A36C46",
"S  c #AA6941",
"D  c #B26E43",
"F  c #B47044",
"G  c #BB7446",
"H  c #C07749",
"J  c #C57A4A",
"K  c #C97C4C",
"L  c #C27E51",
"P  c #B9825D",
"I  c #B48263",
"U  c #B98665",
"Y  c #C68053",
"T  c #D58452",
"R  c #DC8653",
"E  c #DC8854",
"W  c #E38A56",
"Q  c #E88C57",
"!  c #E58E5C",
"~  c #E88C58",
"^  c #EB915E",
"/  c #F0945C",
"(  c #FA9B5F",
")  c #C08967",
"_  c #D28F64",
"`  c #D59167",
"'  c #D59269",
"]  c #DA9C76",
"[  c #DC9F7A",
"{  c #ED9460",
"}  c #F09561",
"|  c #F49B65",
" . c #FC9D61",
".. c #F79E6A",
"X. c #DDA07A",
"o. c #FBA36E",
"O. c #F2A473",
"+. c #FCA471",
"@. c #FBA875",
"#. c #F5AB7D",
"$. c #FBAD7D",
"%. c #FCB07F",
"&. c #848484",
"*. c #8C8C8C",
"=. c #939393",
"-. c #9A9A9A",
";. c #A3A3A3",
":. c #A8A8A8",
">. c #E3AB8A",
",. c #FAAF81",
"<. c #FCB181",
"1. c #FCB78D",
"2. c #FCB88E",
"3. c #FCB991",
"4. c #FBBF9C",
"5. c #FCC09E",
"6. c #FCC3A3",
"7. c #FCC7A8",
"8. c #FCCEB5",
"9. c #FCD0B6",
"0. c #FCD2BB",
"q. c #FBD6C1",
"w. c #FCD8C4",
"e. c None",
/* pixels */
"e.e.e.e.e.e.e.e.e.e.e.e.e.e.e.e.e.e.e.e.e.e.e.e.e.g g g g h l l k k g g g g e.e.e.e.e.e.e.e.e.e.e.e.e.e.e.e.e.e.e.e.e.e.e.e.e.e.",
"e.e.e.e.e.e.e.e.e.e.e.e.e.e.e.e.e.e.e.e.e.e.e.e.e.e.g g g h l k k k g g g g e.e.e.e.e.e.e.e.e.e.e.e.e.e.e.e.e.e.e.e.e.e.e.e.e.e.",
"e.e.e.e.e.e.e.e.e.e.e.e.e.e.e.e.e.e.e.e.e.e.e.e.e.h h h h j z z z l h h h h e.e.e.e.e.e.e.e.e.e.e.e.e.e.e.e.e.e.e.e.e.e.e.e.e.e.",
"e.e.e.e.e.e.e.e.e.e.e.e.e.e.e.e.e.e.e.e.e.f f f d j z z z *.;.:.:.-.z z z l g f d f e.e.e.e.e.e.e.e.e.e.e.e.e.e.e.e.e.e.e.e.e.e.",
"e.e.e.e.e.e.e.e.e.e.e.e.e.e.e.e.e.e.e.e.e.d d f d j z z z *.;.:.:.-.z z z l f d f d e.e.e.e.e.e.e.e.e.e.e.e.e.e.e.e.e.e.e.e.e.e.",
"e.e.e.e.e.e.e.e.e.e.e.e.e.e.e.e.e.e.e.e.e.f f d d j z z z *.:.:.:.-.z z z z g d f d e.e.e.e.e.e.e.e.e.e.e.e.e.e.e.e.e.e.e.e.e.e.",
"e.e.e.e.e.e.e.e.e.e.e.e.e.e.e.e.e.e.e.e.e.f f f d j z z z *.:.:.:.-.z z z z f d f f e.e.e.e.e.e.e.e.e.e.e.e.e.e.e.e.e.e.e.e.e.e.",
"e.e.e.e.e.e.e.e.e.e.e.e.e.e.e.e.e.e.e.e.e.f d f d j z z z *.:.:.:.;.z z z l g f d f e.e.e.e.e.e.e.e.e.e.e.e.e.e.e.e.e.e.e.e.e.e.",
"e.e.e.e.e.e.e.e.e.e.e.e.e.e.e.e.e.e.e.e.e.f d f d j z z l *.:.:.:.-.z z z l f d d f e.e.e.e.e.e.e.e.e.e.e.e.e.e.e.e.e.e.e.e.e.e.",
"e.e.e.e.e.e.e.e.e.e.e.e.e.e.e.e.e.e.e.e.e.f f d d j z z z *.:.:.:.;.z z z z g d f d e.e.e.e.e.e.e.e.e.e.e.e.e.e.e.e.e.e.e.e.e.e.",
"e.e.e.e.e.e.e.e.e.e.e.e.e.e.e.e.e.e.e.e.e.f f f f j z l z *.:.:.:.-.z z z l g d f d e.e.e.e.e.e.e.e.e.e.e.e.e.e.e.e.e.e.e.e.e.e.",
"e.e.e.e.e.e.e.e.e.e.e.e.e.e.e.e.e.z z z z z l l k j g g g j &.&.*.z g g g g k l l l z z z z e.e.e.e.e.e.e.e.e.e.e.e.e.e.e.e.e.e.",
"e.e.e.e.e.e.e.e.e.e.e.e.e.e.e.e.e.&.z z z z z z z j d d d h z z z l f d d g l z z z z z z z e.e.e.e.e.e.e.e.e.e.e.e.e.e.e.e.e.e.",
"e.e.e.e.e.e.e.e.e.e.e.e.e.e.e.e.e.z z z z z z z z j d f d h z z z l f f f f z z z z z z z z e.e.e.e.e.e.e.e.e.e.e.e.e.e.e.e.e.e.",
"e.e.e.e.e.e.e.e.e.e.e.e.e.e.e.e.e.z z z z z z z z j f d f h z z z l d f d g z z z z z z z z e.e.e.e.e.e.e.e.e.e.e.e.e.e.e.e.e.e.",
"e.e.e.e.e.e.e.e.e.e.e.e.e.* * * = l z z z &.=.*.=.j = = = ; f f d d = = = ; j k k l z z z z j g g g e.e.e.e.e.e.e.e.e.e.e.e.e.e.",
"e.e.e.e.e.e.e.e.e.e.e.e.e.* * * * k z z z =.-.-.-.j & * * * * & * * * * * = h j j j l z z z j g g g e.e.e.e.e.e.e.e.e.e.e.e.e.e.",
"e.e.e.e.e.e.e.e.e.e.e.e.e.* * * * k z z z *.-.=.-.j * * * * * * * * * * * = j j j j z z z z j g g g e.e.e.e.e.e.e.e.e.e.e.e.e.e.",
"e.e.e.e.e.e.e.e.e.e.e.e.e.* * * = k z z z *.-.-.-.j & * * * * * * * * * * * h j j j l z z z j g g g e.e.e.e.e.e.e.e.e.e.e.e.e.e.",
"e.e.e.e.e.e.e.e.e.e.e.e.e.* * * * k z z z =.;.-.;.l g g f g g g g g f g f g j j j j l z z z h f g g e.e.e.e.e.e.e.e.e.e.e.e.e.e.",
"e.e.e.e.e.e.e.e.e.e.e.e.e.* * * * k z z z -.:.:.:.*.k l l l z z z z l l l k j j j j z z z z h d f d e.e.e.e.e.e.e.e.e.e.e.e.e.e.",
"e.e.e.e.e.e.e.e.e.e.e.e.e.* * * = k z z z -.:.:.:.*.l k l l z z z l l k l l j j j j l z z z g f f f e.e.e.e.e.e.e.e.e.e.e.e.e.e.",
"e.e.e.e.e.e.e.e.e.e.e.e.e.* * * * k z z z -.:.:.:.*.k l k l z z z z l k l k k j j j z z z z g d f f e.e.e.e.e.e.e.e.e.e.e.e.e.e.",
"e.e.e.e.e.e.e.e.e.e.e.e.e.* * * = k z z z -.:.:.:.-.z z z &.&.&.&.&.z z z z j j j j l z z z g ; ; ; e.e.e.e.e.e.e.e.e.e.e.e.e.e.",
"e.e.e.e.e.e.e.e.e.e.e.e.e.* * * * k z z z -.:.:.:.;.=.-.=.-.-.-.-.-.=.-.-.=.j j j j z z z z d * * * e.e.e.e.e.e.e.e.e.e.e.e.e.e.",
"e.e.e.e.e.e.e.e.e.e.e.e.e.* * * * k z z z -.:.:.:.;.-.=.-.-.-.=.-.=.-.-.=.=.k j j j l z z z d * * * e.e.e.e.e.e.e.e.e.e.e.e.e.e.",
"e.e.e.e.e.e.e.e.e.e.e.e.e.* * * * k Z &.z -.:.:.:.;.-.=.-.=.-.-.-.-.-.-.-.=.k j j j l z z z d * * * e.e.e.e.e.e.e.e.e.e.e.e.e.e.",
"e.e.e.e.e.e.e.e.e.e.e.e.e.* * * * j l l k =.;.;.;.;.-.-.;.-.-.-.-.-.-.-.-.=.j h h j k l l l ; & & & e.e.e.e.e.e.e.e.e.e.e.e.e.e.",
"e.e.e.e.e.e.e.e.e.e.e.e.e.* * * * d f f f z -.-.-.;.:.:.:.:.:.:.:.:.:.:.:.-.g f f f f f f f O       e.e.e.e.e.e.e.e.e.e.e.e.e.e.",
"e.e.e.e.e.e.e.e.e.e.e.e.e.* * * * ; f d d z -.-.-.-.:.:.:.:.:.:.:.:.:.:.:.-.g f d f f d f d o       e.e.e.e.e.e.e.e.e.e.e.e.e.e.",
"e.e.e.e.e.e.e.e.e.e.e.e.e.* * * * d f d f z -.-.-.;.:.:.:.:.:.:.:.:.:.:.:.-.g f f f d d f d O       e.e.e.e.e.e.e.e.e.e.e.e.e.e.",
"e.e.e.e.e.e.e.e.e.e.e.e.e.* * * * ; d d d l -.=.=.-.-.-.-.;.-.-.;.-.-.-.;.=.f ; ; ; w d d d o       X e.e.e.e.e.e.e.e.e.e.e.e.e.",
"e.e.e.e.e.e.e.e.e.e.e.e.e.* * * * * & & & j z &.z k g g g g g g g g g g g f . .   . & & & * .       < S S S S e.e.e.e.e.e.e.e.e.",
"e.e.e.e.e.e.e.e.e.e.e.e.e.* * * * & & & O h z z z h d d d d d d d d d f d ; .       O O O & .       4 S S M S e.e.e.e.e.e.e.e.e.",
"e.e.e.e.e.e.e.e.e.e.e.e.e.* * * * & & & & h z z z j f d d d f d d f d d f ;         O O & & .       4 S S S S e.e.e.e.e.e.e.e.e.",
"e.e.e.e.e.e.e.e.e.e.e.e.e.* * * * & & O & h z z z j d d d f d d d f d f f ; .       O & & & .       4 S S S S e.e.e.e.e.e.e.e.e.",
"e.e.e.e.e.e.e.e.e./ / / E - * * * & & & & g k j k f = = = = = = = = = = = * .       O & & & .       4 S S S S G F F F e.e.e.e.e.",
"e.e.e.e.e.e.e.e.e.} / / E 9 * * * & & & & g j j j d * * * * * * * * * * * &         O O & O .       4 S S M S F F F F e.e.e.e.e.",
"e.e.e.e.e.e.e.e.e./ / / E 9 * * = & & & & f j j j d * * * * * * * * * * * & .       O O & O .       4 S S S S F F F F e.e.e.e.e.",
"e.e.e.e.e.e.e.e.e.^ | / E 9 * * * & O & & f j j j d * * * * * * * * * * * *         O & & & .       4 S S S S F F D F e.e.e.e.e.",
"e.e.e.e.e./ / / | O.O.@.O.) U U I 2 O & & f k j j f * * * * * * * * * * * *         O O & & @ % $ $ t S S S S F F F F e.e.e.e.e.",
"e.e.e.e.e./ / / | $.%.<.<.<.<.<.$.q O & & f j j j f * * * * * * * * * * * *         O & & O , < 5 < c S S S D F F F F e.e.e.e.e.",
"e.e.e.e.e./ / / | %.<.<.%.%.<.%.#.q O & & f j j j d * * * * * * * * * * * &         O O & & , < < < a M S S S F F F F e.e.e.e.e.",
"e.e.e.e.e./ / ^ | %.%.<.%.%.%.%.#.0 O O & f j k k f * * * * * * * * * * * *         O & & & , < < < y S S S S F F F F e.e.e.e.e.",
"e.e.e.e.e.o.| | o.3.3.3.3.6.6.6.5.B p a a 0 = * * & o o o o o o o o o o o o o o o o O & O & 1 e e e v S S S F F F F F F F F e.e.",
"e.e.e.e.e.+.o.o.$.6.6.6.7.w.w.w.q.` K K Y :                                 O & & O & & & & 6 t r r m G F F F F F F F F F F F e.",
"e.e.e.e.e.o.+.o.$.5.6.6.7.w.w.w.0.` J K K :                                 & & O & & & O & 6 r r r b F F F F D F F F D F F F e.",
"e.e.e.e.e.o.@.o.$.6.7.7.7.0.w.w.q.` H K K :                                 O O O & O O O & 6 r r e m F F F F F F F F F F F F e.",
"e.e.e.e.e.+.o.o.@.3.3.4.5.q.w.w.0.>.X.X.X.s : > > : + + + + + + + + + + + @ 7 8 8 8 u i i i b M M m F J J J G G G G F F F F F e.",
"e.e.e.e.e.+.+.+.@.<.<.$.<.0.w.w.w.w.w.w.w.[ K K Y M x x x x x x x x x x x c D F F F W ~ ~ Q Q ^ ~ ~ E E E R T K K K J F F F F e.",
"e.e.e.e.e.+.+.+.@.%.<.<.1.0.w.w.w.w.w.w.w.] J K J M x x x x y y x x x x x c D D F G W Q Q ~ ~ ~ ~ ~ W E E E T K K K J F F F F e.",
"e.e.e.e.e.+.+.o.+.<.<.%.<.0.w.w.w.w.w.w.w.] J K J M y y y y y y y y y y x x D D D D E ~ ~ Q Q ~ ~ ~ W E E R T K K K J F F F F e.",
"e.e.e.e.e.@.@.+.@.%.<.<.1.0.w.w.w.w.w.w.w.>.` ' ` P Z Z Z C V V N V N N N A J L Y Y ! / / ^ ^ Q ~ ~ W E E W T Y Y K K D F F F e.",
"+.+.+.+.@.%.<.%.<.<.<.<.<.0.w.w.w.w.w.w.w.w.q.q.w.0.q.q.q.8.6.6.5.4.1.1.2.2.,.,.$.$.+.+.+.o.^ Q ~ ~ ~ ~ ~ ~ W E W R T F F F F e.",
"o.+.o.o.@.<.%.<.<.%.<.<.1.0.w.w.w.w.w.w.w.w.w.w.w.w.w.w.w.0.6.6.6.5.3.3.2.2.<.$.<.%.@.+.+.+.^ ~ ~ ~ ~ ~ W Q ~ E R E T D F F F e.",
"+.+.+.+.@.%.<.%.%.<.<.<.<.q.w.w.q.w.w.w.w.w.w.w.w.w.w.w.w.0.6.6.6.6.3.1.3.3.<.<.%.,.+.+.+.+.^ Q ~ ~ W ~ Q Q W E E E T F F F F e.",
"+.+.+.+.@.<.$.<.$.$.@.$.,.8.0.0.0.q.w.w.w.w.w.q.q.w.w.w.w.0.6.6.7.5.3.1.3.1.,.,.%.%.@.+.+.+./ / ~ ~ ~ Q ~ Q W E E E T F F F F e.",
"+.o.+.o.@.<.<.<.@.~ ^ ~ { ,.1.1.1.9.w.w.w.w.w.w.w.w.w.w.w.0.6.6.6.6.3.3.3.1.,.,.%.%.+.+.+.+. .(  .( / ~ ~ Q W E E E T K K K K e.",
"o.+.+.+.@.%.%.<.@.! ~ ~ ^ @.$.$.<.9.w.w.w.w.w.w.w.w.w.w.w.0.6.6.6.5.3.3.3.3.,.,.%.%.+.+.o.+.o.(  .( / Q Q ~ W E E E T K K K K e.",
"o.+.+.o.@.%.<.<.#.~ ~ ~ ^ $.%.%.<.9.w.w.w.w.w.w.w.w.w.w.w.0.6.6.6.6.3.1.3.3.,.,.%.%.+.+.+.+. .( (  ./ ~ ~ ~ W E E E T K K K K e.",
"+.o.+.+.@.%.<.<.#.~ ~ ~ ^ #.$.$.<.8.q.q.w.0.q.q.0.0.w.0.q.8.6.6.6.6.3.3.1.3.,.,.%.%.+.o.o.o.( ( (  ./ ~ W ~ W E E E T K K K K e.",
"+.+.o.+.@.%.%.<.$...o.o...{ ^ ^ { ,.2.1.1.1.1.2.2.2.2.2.1.1.<.1.<.<.<.<.,.,.@.+.+.+.o. .( o.( o. .( / ~ ~ ~ W E E E T K K K K e.",
"o.+.+.+.@.%.<.%.$.o.+.o.o.~ ~ ~ ~ @.%.%.%.%.$.$.%.%.%.%.$.%.<.<.<.<.<.$.,.$.+.+.+.+. .( ( (  .(  .( / ~ ~ ~ W E E E T K J K K e.",
"+.+.+.o.@.<.%.<.$.+.+.+.o.~ ~ ~ ~ @.<.<.%.%.<.%.<.%.<.%.<.%.,.<.<.<.,.<.<.$.+.+.+.+. . . . .(  .( ( / ~ ~ ~ W E E E T K K K K e."
};
