/* XPM */
static char *result[] = {
/* columns rows colors chars-per-pixel */
"64 64 139 2 ",
"   c #020202",
".  c #0C0C0C",
"X  c #151515",
"o  c #1C1C1C",
"O  c #1F1F20",
"+  c #232323",
"@  c #2C2C2C",
"#  c #343434",
"$  c gray23",
"%  c #472C18",
"&  c #482D19",
"*  c #52351F",
"=  c #5B3C26",
"-  c #6B4329",
";  c #744D34",
":  c #73503A",
">  c #7C543A",
",  c #444444",
"<  c #494949",
"1  c #4F5153",
"2  c #545454",
"3  c #5C5C5C",
"4  c #61554D",
"5  c #655951",
"6  c #695B51",
"7  c #725E50",
"8  c #6F645C",
"9  c #72645B",
"0  c #646464",
"q  c #6D6D6D",
"w  c #72706F",
"e  c #6F7070",
"r  c #737373",
"t  c #7C7C7C",
"y  c #81502C",
"u  c #8E5832",
"i  c #935B33",
"p  c #905E3A",
"a  c #91603C",
"s  c #9C643E",
"d  c #885D41",
"f  c #83644F",
"g  c #94664A",
"h  c #93684E",
"j  c #9C6C4D",
"k  c #826A5C",
"l  c #966D54",
"z  c #986C50",
"x  c #A06943",
"c  c #AC6D45",
"v  c #A26F4E",
"b  c #B36F44",
"n  c #B47044",
"m  c #B97546",
"M  c #BD7847",
"N  c #BD7648",
"B  c #BC7848",
"V  c #A77457",
"C  c #AF7655",
"Z  c #AB7954",
"A  c #AB7C5F",
"S  c #B37953",
"D  c #827267",
"F  c #80746B",
"G  c #B07E61",
"H  c #C57B4B",
"J  c #C97D4C",
"K  c #C27D52",
"L  c #CF7F50",
"P  c #8F837B",
"I  c #92857C",
"U  c #B68365",
"Y  c #B58C75",
"T  c #B6917E",
"R  c #CE804F",
"E  c #D1804F",
"W  c #CD8457",
"Q  c #CF8759",
"!  c #D28150",
"~  c #D98553",
"^  c #DD8854",
"/  c #E58B57",
"(  c #E88C57",
")  c #E68C59",
"_  c #E98D58",
"`  c #E3905D",
"'  c #ED915C",
"]  c #F2945C",
"[  c #F99A5F",
"{  c #C28E6D",
"}  c #C08F70",
"|  c #CC9B7D",
" . c #ED9360",
".. c #ED9C69",
"X. c #F19763",
"o. c #F59B67",
"O. c #FC9C61",
"+. c #F39C69",
"@. c #F89F6B",
"#. c #F5A16E",
"$. c #FCA16A",
"%. c #ECA57B",
"&. c #ECAA7F",
"*. c #F4A271",
"=. c #FCA571",
"-. c #F7A877",
";. c #FCA877",
":. c #F5AB7C",
">. c #FCAD7C",
",. c #FCB07F",
"<. c #848484",
"1. c #8C8C8C",
"2. c #949494",
"3. c #999999",
"4. c #BB9583",
"5. c #A5A5A5",
"6. c #A9A9A9",
"7. c #B4B4B4",
"8. c #C49E8A",
"9. c #C6A18F",
"0. c #CFA68D",
"q. c #D1A285",
"w. c #D5A68A",
"e. c #F3AE83",
"r. c #F8AF81",
"t. c #FCB080",
"y. c #F0B18B",
"u. c #FDB58C",
"i. c #FCB791",
"p. c #FCB994",
"a. c #F2BA99",
"s. c #FEBE9C",
"d. c #FCC19E",
"f. c #FCC4A4",
"g. c #FCC7A9",
"h. c #FCC8AB",
"j. c #FCD7C2",
"k. c #FCD9C6",
"l. c None",
/* pixels */
"l.l.l.l.l.l.l.l.l.l.l.l.l.l.l.l.l.l.l.l.l.l.l.l.l.l.< < q t 1.5.5.1.t q < < l.l.l.l.l.l.l.l.l.l.l.l.l.l.l.l.l.l.l.l.l.l.l.l.l.l.",
"l.l.l.l.l.l.l.l.l.l.l.l.l.l.l.l.l.l.l.l.l.l.l.l.l.l.< < r t 1.5.5.1.t r < < l.l.l.l.l.l.l.l.l.l.l.l.l.l.l.l.l.l.l.l.l.l.l.l.l.l.",
"l.l.l.l.l.l.l.l.l.l.l.l.l.l.l.l.l.l.l.l.l.l.l.l.l.l.< < q t 1.6.5.1.t q < < l.l.l.l.l.l.l.l.l.l.l.l.l.l.l.l.l.l.l.l.l.l.l.l.l.l.",
"l.l.l.l.l.l.l.l.l.l.l.l.l.l.l.l.l.l.l.l.l.l.l.l.l.l.< < q t 1.5.6.1.t q < < l.l.l.l.l.l.l.l.l.l.l.l.l.l.l.l.l.l.l.l.l.l.l.l.l.l.",
"l.l.l.l.l.l.l.l.l.l.l.l.l.l.l.l.l.l.l.l.l.l.l.l.l.l.< < q t 1.5.5.1.t q < < l.l.l.l.l.l.l.l.l.l.l.l.l.l.l.l.l.l.l.l.l.l.l.l.l.l.",
"l.l.l.l.l.l.l.l.l.l.l.l.l.l.l.l.l.l.l.l.l.l.l.l.l.l.< < q t 1.5.5.1.t r < < l.l.l.l.l.l.l.l.l.l.l.l.l.l.l.l.l.l.l.l.l.l.l.l.l.l.",
"l.l.l.l.l.l.l.l.l.l.l.l.l.l.l.l.l.l.l.l.l.l.l.l.l.l.< < q t 1.5.5.1.t q < < l.l.l.l.l.l.l.l.l.l.l.l.l.l.l.l.l.l.l.l.l.l.l.l.l.l.",
"l.l.l.l.l.l.l.l.l.l.l.l.l.l.l.l.l.l.l.l.l.l.l.l.l.l.< < r t 1.5.5.1.t q < < l.l.l.l.l.l.l.l.l.l.l.l.l.l.l.l.l.l.l.l.l.l.l.l.l.l.",
"l.l.l.l.l.l.l.l.l.l.l.l.l.l.l.l.l.l.l.l.l.l.l.l.l.q 3 0 q r t 3.3.t r q 0 3 q l.l.l.l.l.l.l.l.l.l.l.l.l.l.l.l.l.l.l.l.l.l.l.l.l.",
"l.l.l.l.l.l.l.l.l.l.l.l.l.l.l.l.l.l.l.l.l.l.l.t t t t t q 0 w 1.1.r 0 q t t t t t l.l.l.l.l.l.l.l.l.l.l.l.l.l.l.l.l.l.l.l.l.l.l.",
"l.l.l.l.l.l.l.l.l.l.l.l.l.l.l.l.l.l.l.l.l.l.l.t t t t t 0 0 e 1.1.q 0 q t t t t t l.l.l.l.l.l.l.l.l.l.l.l.l.l.l.l.l.l.l.l.l.l.l.",
"l.l.l.l.l.l.l.l.l.l.l.l.l.l.l.l.l.l.l.l.l.0 0 t t t t t q 0 e 1.1.r 0 0 t t t t t 0 0 l.l.l.l.l.l.l.l.l.l.l.l.l.l.l.l.l.l.l.l.l.",
"l.l.l.l.l.l.l.l.l.l.l.l.l.l.l.l.l.l.l.l.l.q q r t t t t q 0 e 1.1.r 0 q t t t t r q 0 l.l.l.l.l.l.l.l.l.l.l.l.l.l.l.l.l.l.l.l.l.",
"l.l.l.l.l.l.l.l.l.l.l.l.l.l.l.l.l.l.l.l.l.3 3 t t <.1.1.0 1 3 r r 3 < 3 r r t t r 3 5 l.l.l.l.l.l.l.l.l.l.l.l.l.l.l.l.l.l.l.l.l.",
"l.l.l.l.l.l.l.l.l.l.l.l.l.l.l.l.l.l.l.l.l.2 2 r t 1.6.5.2 # $ < < $ # , 0 0 r t r 2 2 l.l.l.l.l.l.l.l.l.l.l.l.l.l.l.l.l.l.l.l.l.",
"l.l.l.l.l.l.l.l.l.l.l.l.l.l.l.l.l.l.l.l.l.2 2 r t 1.6.5.1 $ $ , < $ $ , 0 0 r t r 3 2 l.l.l.l.l.l.l.l.l.l.l.l.l.l.l.l.l.l.l.l.l.",
"l.l.l.l.l.l.l.l.l.l.l.l.l.l.l.l.l.l.l.l.l.2 2 1.2.2.3.3.< @ @ # # @ # $ 0 0 r <.r < < l.l.l.l.l.l.l.l.l.l.l.l.l.l.l.l.l.l.l.l.l.",
"l.l.l.l.l.l.l.l.l.l.l.l.l.l.l.l.l.l.l.l.l.2 2 1.3.2.3.2., @ @ @ @ @ @ # 0 0 r t r < < l.l.l.l.l.l.l.l.l.l.l.l.l.l.l.l.l.l.l.l.l.",
"l.l.l.l.l.l.l.l.l.l.l.l.l.l.l.l.l.l.l.l.l.2 3 1.3.5.5.5.3 , , , , , , < 0 0 r t r < , l.l.l.l.l.l.l.l.l.l.l.l.l.l.l.l.l.l.l.l.l.",
"l.l.l.l.l.l.l.l.l.l.l.l.l.l.l.l.l.l.l.l.l.2 3 3.6.6.7.6.t e e t t r q q 0 0 r t q $ $ l.l.l.l.l.l.l.l.l.l.l.l.l.l.l.l.l.l.l.l.l.",
"l.l.l.l.l.l.l.l.l.l.l.l.l.l.l.l.l.l.l.l.l.2 3 2.6.7.7.7.t e r t t r r q 0 0 r t q $ $ l.l.l.l.l.l.l.l.l.l.l.l.l.l.l.l.l.l.l.l.l.",
"l.l.l.l.l.l.l.l.l.l.l.l.l.l.l.l.l.l.l.l.l.2 3 3.6.6.7.7.6.5.6.6.5.5.5.2.0 0 3 2 2 @ @ : m b l.l.l.l.l.l.l.l.l.l.l.l.l.l.l.l.l.l.",
"l.l.l.l.l.l.l.l.l.l.l.l.l.l.l.l.l.l.l.l.l.2 3 2.6.6.7.7.7.7.7.7.7.7.7.5.q 0 < < , @ @ > m b l.l.l.l.l.l.l.l.l.l.l.l.l.l.l.l.l.l.",
"l.l.l.l.l.l.l.l.l.l.l.l.l.l.l.l.l.l.l.l.k 2 2 2.5.6.7.7.6.6.6.6.6.5.6.2.0 3 < < , + + ; n n l.l.l.l.l.l.l.l.l.l.l.l.l.l.l.l.l.l.",
"l.l.l.l.l.l.l.l.l.l.l.l.l.l.l.l.l.l.=.=.G 2 3 <.1.3.7.7.2.1.1.2.2.1.1.t < < < < $     - n b n n l.l.l.l.l.l.l.l.l.l.l.l.l.l.l.l.",
"l.l.l.l.l.l.l.l.l.l.l.l.l.l.l.l.l.l.=.=.U 1 3 <.1.3.7.7.2.1.1.1.1.1.1.t < < < < $     - n b n b l.l.l.l.l.l.l.l.l.l.l.l.l.l.l.l.",
"l.l.l.l.l.l.l.l.l.l.l.l.l.l.l.l.=.;.u.u.Y 1 2 0 0 r 1.1.q 3 5 0 3 3 3 2 # # @ @ +     - m n b n l.l.l.l.l.l.l.l.l.l.l.l.l.l.l.l.",
"l.l.l.l.l.l.l.l.l.l.l.l.l.l.l.l.=.;.p.s.4.2 2 2 2 3 t t 2 , , , < < < , @ @ + + o     - n n n n l.l.l.l.l.l.l.l.l.l.l.l.l.l.l.l.",
"l.l.l.l.l.l.l.l.l.l.l.l.l.l.l.l.$.;.p.s.4.2 2 2 2 0 r r 1 , $ , , , , $ + + + + X     - m m b b m l.l.l.l.l.l.l.l.l.l.l.l.l.l.l.",
"l.l.l.l.l.l.l.l.l.l.l.l.l.l.l.l.=.;.p.s.4.0 0 2 1 3 0 0 $ @ @ @ @ @ @ +     X + o     - B B n b b b n l.l.l.l.l.l.l.l.l.l.l.l.l.",
"l.l.l.l.l.l.l.l.l.l.l.l.l.l.l.l.$.=.p.s.4.0 0 2 2 3 0 0 $ @ @ @ @ @ @ +     X + o     - B B b b n b n l.l.l.l.l.l.l.l.l.l.l.l.l.",
"l.l.l.l.l.l.l.l.l.l.l.l.l.l.l.l.=.;.p.s.9.r e 3 1 3 0 0 $ @ @ @ @ @ @ o     . . X # # d H H B m m n n l.l.l.l.l.l.l.l.l.l.l.l.l.",
"l.l.l.l.l.l.l.l.l.l.l.l.l.l.l.l.$.-.p.s.9.t t 3 1 3 0 0 $ # @ @ @ @ @ +         . 2 2 z J H N B m n n l.l.l.l.l.l.l.l.l.l.l.l.l.",
"l.l.l.l.l.l.l.l.l.l.l.l.l.l.l.=.=.=.p.s.0.P P 0 3 3 0 5 # + + + + + + o   . . . o 4 5 j J H H B n n n l.l.l.l.l.l.l.l.l.l.l.l.l.",
"l.l.l.l.l.l.l.l.l.l.l.l.l.=.$.=.=.=.,.r.,.:.&.P t 0 2 2 X             . o O $ < 4 c c M J H B B m n n l.l.l.l.l.l.l.l.l.l.l.l.l.",
"l.l.l.l.l.l.l.l.l.l.l.l.l.=.=.=.=.=.,.t.t.,.:.I t e 2 1 X             . O O , 2 5 n n M J H B B n n n l.l.l.l.l.l.l.l.l.l.l.l.l.",
"l.l.l.l.l.l.l.l.l.l.l.l.l.=.=.=.=.=.>.t.p.g.f.0.8.Y h h = % % & % % % * ; ; g V C R E E E R H H N n n l.l.l.l.l.l.l.l.l.l.l.l.l.",
"l.l.l.l.l.l.l.l.l.l.l.l.l.$.=.=.=.=.>.,.d.k.j.d.i.%.J H i ; y y y y y u n n ~ _ _ ( _ / ^ ^ J H N n n l.l.l.l.l.l.l.l.l.l.l.l.l.",
"l.l.l.l.l.l.l.l.l.l.l.l.l.=.=.=.=.-.>.t.d.k.h.s.p.&.! Q j i a a p p p s B B ~ ' _ ) ) / ^ ^ R J N n n l.l.l.l.l.l.l.l.l.l.l.l.l.",
"l.l.l.l.l.l.l.l.l.l.l.l.l.=.=.;.,.>.t.t.f.k.k.g.f.f.d.a.a.a.a.a.a.y.y.e.:.:.=.#.$.( ) ) ) ) ^ ~ H n b l.l.l.l.l.l.l.l.l.l.l.l.l.",
"l.l.l.l.l.l.l.l.l.l.l.l.l.=.=.;.t.t.t.t.d.k.j.h.f.f.f.f.f.f.f.f.f.s.i.u.,.,.;.=.$.' ) ) ( ) ^ ^ J b n l.l.l.l.l.l.l.l.l.l.l.l.l.",
"l.l.l.l.l.l.l.l.l.l.l.l.l.=.;.;.t.>.*.+.e.f.f.f.f.f.f.f.f.f.f.f.f.p.i.u.,.,.;.=.$.] ] ' ( / ^ ^ J N N l.l.l.l.l.l.l.l.l.l.l.l.l.",
"l.l.l.l.l.l.l.l.l.l.l.l.l.$.=.;.t.>.' ( +.,.,.d.f.f.f.f.f.f.f.f.f.p.i.u.,.,.;.=.$.O.[ ] ) ) ^ ^ ! J J l.l.l.l.l.l.l.l.l.l.l.l.l.",
"l.l.l.l.l.l.l.l.l.l.l.l.l.=.=.;.t.>. ._ ..:.,.p.d.d.d.f.f.s.f.s.d.i.u.u.,.,.=.$.$.[ [ ] ) / ^ ^ ! J J l.l.l.l.l.l.l.l.l.l.l.l.l.",
"l.l.l.l.l.l.l.l.l.l.l.l.l.=.=.;.t.,.=.#.o.' ' *.;.;.;.;.;.;.;.;.;.;.=.=.=.;.$.O.$.[ [ ] _ ( ^ ^ E J J l.l.l.l.l.l.l.l.l.l.l.l.l.",
"l.l.l.l.l.l.l.l.l.l.l.l.l.=.=.;.t.t.=.=.o.( _ #.=.$.=.=.=.=.=.$.=.=.=.=.=.=.$.O.O.O.O.] ( ( ^ ^ ! J J l.l.l.l.l.l.l.l.l.l.l.l.l.",
"l.l.l.l.l.l.l.l.l.l.l.l.l.$.o.=.t.>.;.;.+._ _ X.o.o.$.$.$.$.$.$.$.$.$.$.$.$.O.O.[ [ ] _ ( / ~ ~ J J H l.l.l.l.l.l.l.l.l.l.l.l.l.",
"l.l.l.l.l.l.l.l.l.l.l.l.l.' ] #.t.t.t.t.#.( _ _ ( ] [ O.O.[ [ [ [ O.[ O.O.O.O.O.[ _ ( ( _ ) E E J J J l.l.l.l.l.l.l.l.l.l.l.l.l.",
"l.l.l.l.l.l.l.l.l.l.l.l.l.' ' #.t.t.t.t.*.' ' ( ) ' [ [ [ [ [ [ [ [ [ [ O.O.[ O.[ _ ( ( ( ( L L ! J J l.l.l.l.l.l.l.l.l.l.l.l.l.",
"l.l.l.l.l.l.l.l.l.l.l.l.l./ / ..,.,.,.t.>.:.-.` ^ ^ ~ ~ ~ ~ ~ ~ ~ ~ ~ ~ ! ~ ! ~ ~ ! ! ! ! ! L W J J J l.l.l.l.l.l.l.l.l.l.l.l.l.",
"l.l.l.l.l.l.l.l.l.l.l.l.l.^ ^ ..,.,.,.,.,.t.,.` ^ ~ L E W E ! ! L L ! L ! L ! L L L E E L E W L J J J l.l.l.l.l.l.l.l.l.l.l.l.l.",
"l.l.l.l.l.l.l.l.l.l.l.l.l.Y { | w.w.w.w.q.| | Q R R H J H R H H J J J K G G G G G A G G G G G U A A A l.l.l.l.l.l.l.l.l.l.l.l.l.",
"l.l.l.l.l.l.l.l.l.l.3.3.3.3.3.3.3.3.3.3.1.t t S M B B B B B M B B B M Z t t t t F t t t t t t t t t t 0 0 0 l.l.l.l.l.l.l.l.l.l.",
"l.l.l.l.l.l.l.l.l.l.3.3.3.3.3.3.3.3.2.3.1.t P S B B B B B B B M B m N Z t t t t <.t t t t t t t t t t 0 0 0 l.l.l.l.l.l.l.l.l.l.",
"l.l.l.l.l.l.l.l.3.3.3.5.5.5.5.5.5.5.3.3.1.t t r w D D D S J H M m f 5 8 t t 1.2.2.2.2.2.2.1.t t t t t t t q 0 0 l.l.l.l.l.l.l.l.",
"l.l.l.l.l.l.l.l.2.3.5.6.6.6.6.6.6.5.3.3.1.t t r w w w w S J H M M 9 1 3 t t 1.3.2.3.3.3.3.3.t t t t t t t r 0 0 l.l.l.l.l.l.l.l.",
"l.l.l.l.l.l.l.l.3.3.5.5.5.6.6.6.6.5.3.3.1.t t r r e w w l v v j j 9 0 0 t t 1.3.3.3.3.2.1.1.<.t t t t t t r 0 0 l.l.l.l.l.l.l.l.",
"l.l.l.l.l.l.l.l.3.3.5.6.6.6.5.6.6.6.3.3.1.t t t t t e w 3 2 2 2 2 w t t t t 1.3.2.3.3.<.t t t <.t t t t t w 0 0 l.l.l.l.l.l.l.l.",
"l.l.l.l.l.l.l.l.2.3.5.6.6.5.6.6.6.5.3.3.1.t t t t t w w 3 2 2 2 2 w t t t t 2.3.2.3.2.1.t t t F t t t t t e 0 0 l.l.l.l.l.l.l.l.",
"l.l.l.l.l.l.3.3.3.3.3.6.5.5.3.3.2.2.t t t t t t t r 0 0 3 2 2 2 2 w t t t t <.<.<.t t r r r r r q q q q q 0 0 0 0 0 l.l.l.l.l.l.",
"l.l.l.l.l.3.2.3.3.2.5.6.5.3.3.2.1.1.e q r t t t t r 0 0 2 2 2 2 2 e t t t t t t t q q w q q e e 0 0 0 3 0 0 0 0 0 0 0 l.l.l.l.l.",
"l.l.l.l.l.3.3.3.3.3.5.6.6.3.3.3.1.1.t t t r t t r r 0 0 3 3 2 2 1 q r e t t t t t r r r t t r r r q q q q q 0 0 0 0 0 l.l.l.l.l.",
"l.l.l.3.3.5.6.6.6.6.6.6.6.6.6.5.3.3.3.3.1.w e 0 0 0 0 0 0 0 3 < < 1 2 0 t t r w r t t <.1.1.t t t t t t t r 0 0 0 0 0 0 0 l.l.l.",
"l.l.l.3.2.5.6.6.6.6.6.6.6.6.6.3.3.3.3.3.<.w r 0 0 0 0 0 0 0 3 , < 1 2 3 t t e w e t t <.1.1.t t t t t t t r 0 0 0 0 0 0 0 l.l.l."
};
