/* XPM */
static char *result[] = {
/* columns rows colors chars-per-pixel */
"64 64 206 2 ",
"   c #020101",
".  c #0D0D0D",
"X  c #1E120B",
"o  c #131313",
"O  c #1E1E1E",
"+  c #170E09",
"@  c #20140C",
"#  c #382A17",
"$  c #3F311E",
"%  c #1F1F20",
"&  c #212121",
"*  c #2C2C2C",
"=  c #2E2927",
"-  c #323232",
";  c #3C3C3C",
":  c #533A1C",
">  c #5D3A22",
",  c #543A26",
"<  c #453320",
"1  c #613C21",
"2  c #5E411F",
"3  c #4E4138",
"4  c #684625",
"5  c #7D4F2A",
"6  c #744C28",
"7  c #744D31",
"8  c #454545",
"9  c #4B4A4A",
"0  c #484848",
"q  c gray33",
"w  c #5C5C5C",
"e  c #5E5151",
"r  c #775044",
"t  c #6D645F",
"y  c #7B675A",
"u  c #636364",
"i  c #6B6B6B",
"p  c #737373",
"a  c #7C7C7C",
"s  c #7D726B",
"d  c #970000",
"f  c #990101",
"g  c #A40202",
"h  c #A90E0E",
"j  c #BB0101",
"k  c #AA1010",
"l  c #D40101",
"z  c #D70808",
"x  c #EC0101",
"c  c #E70606",
"v  c #FC0101",
"b  c #EF1515",
"n  c #F01717",
"m  c #F11A1A",
"M  c #F71516",
"N  c #F1201D",
"B  c #C72B2B",
"V  c #D43737",
"C  c #F32626",
"Z  c #EB3A3A",
"A  c #804F2B",
"S  c #84532D",
"D  c #8E5A38",
"F  c #965E3A",
"G  c #9D613B",
"H  c #A2653D",
"J  c #A9683F",
"K  c #A7683F",
"L  c #895E43",
"P  c #835B42",
"I  c #AB4848",
"U  c #8C6349",
"Y  c #8D6146",
"T  c #906E58",
"R  c #AB6A41",
"E  c #A36742",
"W  c #B26E45",
"Q  c #A7714C",
"!  c #B47044",
"~  c #BB7447",
"^  c #B5724A",
"/  c #A77553",
"(  c #AC7C5D",
")  c #A77B5C",
"_  c #B77D57",
"`  c #8A6B64",
"'  c #947367",
"]  c #DF4141",
"[  c #E64848",
"{  c #F74849",
"}  c #FC5354",
"|  c #F65B5B",
" . c #FC5C5C",
".. c #FC5E53",
"X. c #E95353",
"o. c #C47A4B",
"O. c #C97C4C",
"+. c #C1774A",
"@. c #CB7F50",
"#. c #FA6D53",
"$. c #FB6D6D",
"%. c #FA6565",
"&. c #FA7474",
"*. c #BA8E73",
"=. c #BC8F73",
"-. c #CF804F",
";. c #CB8457",
":. c #D48351",
">. c #D88653",
",. c #DC8854",
"<. c #D18759",
"1. c #D0814F",
"2. c #E28A56",
"3. c #E98C57",
"4. c #E98D59",
"5. c #E78C58",
"6. c #ED935C",
"7. c #F1945C",
"8. c #FB9A5F",
"9. c #F7985E",
"0. c #FD8653",
"q. c #FCB555",
"w. c #C68D6A",
"e. c #CF916D",
"r. c #D2956F",
"t. c #DA9971",
"y. c #EE9662",
"u. c #E99D6D",
"i. c #F19662",
"p. c #F39861",
"a. c #FC9C61",
"s. c #F89F69",
"d. c #F49E6A",
"f. c #ED9873",
"g. c #DCA27E",
"h. c #DCBF7A",
"j. c #FCA36D",
"k. c #F8A06B",
"l. c #E1A077",
"z. c #E7A278",
"x. c #FCA571",
"c. c #FBA976",
"v. c #FCAD7C",
"b. c #F7A878",
"n. c #FCB07F",
"m. c #FCBD76",
"M. c #D6D85E",
"N. c #FCDE55",
"B. c #FEEF5F",
"V. c #FDFE53",
"C. c #D9D878",
"Z. c #D9CD6B",
"A. c #FDD570",
"S. c #EDED63",
"D. c #FCE467",
"F. c #858584",
"G. c #8D8D8D",
"H. c #949494",
"J. c #979899",
"K. c #9A9A9A",
"L. c #908F8E",
"P. c #AD9688",
"I. c #AA9996",
"U. c #BB9781",
"Y. c #B3B392",
"T. c #A4A4A4",
"R. c #A9A9A9",
"E. c #A9A9A7",
"W. c #B4B4B4",
"Q. c #B9B9B9",
"!. c #B6A6A8",
"~. c #C28888",
"^. c #FB8383",
"/. c #FC8A8A",
"(. c #FD9D9D",
"). c #FC9291",
"_. c #FC9188",
"`. c #DBA889",
"'. c #CAB590",
"]. c #FCB181",
"[. c #FBB68B",
"{. c #FCBB89",
"}. c #E4A29D",
"|. c #FDA29A",
" X c #FCBA92",
".X c #FCBE99",
"XX c #E5AE8D",
"oX c #E39FA0",
"OX c #FC9EA1",
"+X c #CBA4A6",
"@X c #FDA1A1",
"#X c #F6A0A1",
"$X c #BFC091",
"%X c #FCC19F",
"&X c #FCC4A3",
"*X c #FCCAAD",
"=X c #F0C2A7",
"-X c #FCCDB3",
";X c #F4C9B1",
":X c #FAD4BF",
">X c #C5C5C5",
",X c #CCCCCC",
"<X c #D2D2D2",
"1X c #FCD7C2",
"2X c #FCD8C5",
"3X c None",
/* pixels */
"3X3X3X3X3X3X3X3X3X3X3X3X3X3X3X3X3X3X3X3X3X3X3X3X3X3Xd d l v x g d 3X3X3X3X3X3X3X3X3X3X3X3X3X3X3X3X3X3X3X3X3X3X3X3X3X3X3X3X3X3X3X",
"3X3X3X3X3X3X3X3X3X3X3X3X3X3X3X3X3X3X3Xv v 3X3X3X3X3Xl l [ &.| z l 3X3X3X3X3X3Xv v 3X3X3X3X3X3X3X3X3X3X3X3X3X3X3X3X3X3X3X3X3X3X3X",
"3X3X3X3X3X3X3X3X3X3X3X3X3X3X3X3X3X3Xv v v 3X3X3X3X3Xx x | @X^.c x 3X3X3X3X3Xv v v 3X3X3X3X3X3X3X3X3X3X3X3X3X3X3X3X3X3X3X3X3X3X3X",
"3X3X3X3X3X3X3X3X3X3X3X3X3X3X3X3X3X3X3Xv v 3X3X3X3X3Xm m $.|.^.C m C 3X3X3X3XM v v 3X3X3X3X3X3X3X3X3X3X3X3X3X3X3X3X3X3X3X3X3X3X3X",
"3X3X3X3X3X3X3X3X3X3X3X3X3X3X3X3X3X3X3X3X3X} }  . . . . .^.(.).%. . . . .} } 3X3X3X3X3X3X3X3X3X3X3X3X3X3X3X3X3X3X3X3X3X3X3X3X3X3X",
"3X3X3X3X3X3X3X3X3X3X3X3X3X3X3X3X3X3X3X3X3X} } }  . . . .^.(.). . . . . .} } 3X3X3X3X3X3X3X3X3X3X3X3X3X3X3X3X3X3X3X3X3X3X3X3X3X3X",
"3X3X3X3X3X3X3X3X3X3X3X3X3X3X3X3X3X3X3X3X3Xn b | /./././.m.D.A._./.$.} { m n 3X3X3X3X3X3X3X3X3X3X3X3X3X3X3X3X3X3X3X3X3X3X3X3X3X3X",
"3X3X3X3X3X3X3X3X3X3X3X3X3X3X3X3X3X3X3X3X3Xx c | @XOX(.OXA.V.B.|.(.&.} { x x 3X3X3X3X3X3X3X3X3X3X3X3X3X3X3X3X3X3X3X3X3X3X3X3X3X3X",
"3X3X3X3X3X3X3X3X3X3X3X3X3X3X3X3X3X3X3X3X3Xn m #.{.[.oXoXZ.M.Z.oXoXf.#.#.N n n 3X3X3X3X3X3X3X3X3X3X3X3X3X3X3X3X3X3X3X3X3X3X3X3X3X",
"3X3X3X3X3X3X3X3X3X3X3X3X3X3X3X3X3X3Xd d k { } q.V.S.E.R.G.a F.T.R.C.V.N...} C x x 3X3X3X3X3X3X3X3X3X3X3X3X3X3X3X3X3X3X3X3X3X3X3X",
"3X3X3X3X3X3X3X3X3X3X3X3X3X3X3X3X3X3Xf d k { } q.V.S.E.T.G.a F.T.T.Z.V.B...} C x x 3X3X3X3X3X3X3X3X3X3X3X3X3X3X3X3X3X3X3X3X3X3X3X",
"3X3X3X3X3X3X3X3X3X3X3X3X3X3X3X3Xd d B [ X.^./.`.$XY.J.J.R.Q.W.J.H.Y.'.'././. .{ Z g d 3X3X3X3X3X3X3X3X3X3X3X3X3X3X3X3X3X3X3X3X3X",
"3X3X3X3X3X3X3X3X3X3X3X3X3X3X3X3Xd d V %.$.(.@X+XR.R.G.G.W.<X>XH.F.K.R.!.#XOX&.%.X.f d 3X3X3X3X3X3X3X3X3X3X3X3X3X3X3X3X3X3X3X3X3X",
"3X3X3X3X3X3X3X3X3X3X3X3X3X3X3X3Xd d B ] ] $.$.~.K.K.J.J.W.<X>XK.K.K.K.I.&.&.X.] V h d 3X3X3X3X3X3X3X3X3X3X3X3X3X3X3X3X3X3X3X3X3X",
"3X3X3X3X3X3X3X3X3X3X3X3X3X3X3X3X3X3Xd d g c x I a F.R.W.>X<X,XW.W.H.a ` z x j d d 3X3X3X3X3X3X3X3X3X3X3X3X3X3X3X3X3X3X3X3X3X3X3X",
"3X3X3X3X3X3X3X3X3X3X3X3X3X3X3X3X3X3Xd d g x x I a F.W.W.>X<X,XQ.W.H.a ` c x j d d 3X3X3X3X3X3X3X3X3X3X3X3X3X3X3X3X3X3X3X3X3X3X3X",
"3X3X3X3X3X3X3X3X3X3X3X3X3X3X3X3X3X3X3X3X3X3X3Xr q u R.W.>X<X,XW.W.a q e 3X3X3X3X3X3X3X3X3X3X3X3X3X3X3X3X3X3X3X3X3X3X3X3X3X3X3X3X",
"3X3X3X3X3X3X3X3X3X3X3X3X3X3X3X3X3X3X3X3X3X3X3X8 8 w W.W.>X<X,XQ.Q.p 8 8 3X3X3X3X3X3X3X3X3X3X3X3X3X3X3X3X3X3X3X3X3X3X3X3X3X3X3X3X",
"3X3X3X3X3X3X3X3X3X3X3X3X3X3X3X3X3X3X3X3X3X3X3Xw w u L.H.R.W.W.J.H.p q w 3X3X3X3X3X3X3X3X3X3X3X3X3X3X3X3X3X3X3X3X3X3X3X3X3X3X3X3X",
"3X3X3X3X3X3X3X3X3X3X3X3X3X3X3X3X3X3X3X3X3Xa a a a p 9 0 u F.p 9 0 u a a a a 3X3X3X3X3X3X3X3X3X3X3X3X3X3X3X3X3X3X3X3X3X3X3X3X3X3X",
"3X3X3X3X3X3X3X3X3X3X3X3X3X3X3X3X3X3X3X3X3Xa a a a p 9 0 u a p 9 0 i a a a a 3X3X3X3X3X3X3X3X3X3X3X3X3X3X3X3X3X3X3X3X3X3X3X3X3X3X",
"3X3X3X3X3X3X3X3X3X3X3X3X3X3X3X3X3X3X3X* ; a a F.L.F.; - ; 8 ; - - q i i a a u q q 3X3X3X3X3X3X3X3X3X3X3X3X3X3X3X3X3X3X3X3X3X3X3X",
"3X3X3X3X3X3X3X3X3X3X3X3X3X3X3X3X3X3X* * ; p a G.K.G.- * * * * * * 9 u i a a u q q 3X3X3X3X3X3X3X3X3X3X3X3X3X3X3X3X3X3X3X3X3X3X3X",
"3X3X3X3X3X3X3X3X3X3X3X3X3X3X3X3X3X3X* * ; p a L.K.G.0 ; 8 ; 8 ; , q u i a a u 9 q 3X3X3X3X3X3X3X3X3X3X3X3X3X3X3X3X3X3X3X3X3X3X3X",
"3X3X3X3X3X3X3X3X3X3X3X3X3X3X3X3X3X3X* * - p a H.R.K.p p p a a p p i u i a a w 8 0 3X3X3X3X3X3X3X3X3X3X3X3X3X3X3X3X3X3X3X3X3X3X3X",
"3X3X3X3X3X3X3X3X3X3X3X3X3X3X3X3X3X3X* * ; a a J.R.T.p p a a a i p u u u a a w 8 0 3X3X3X3X3X3X3X3X3X3X3X3X3X3X3X3X3X3X3X3X3X3X3X",
"3X3X3X3X3X3X3X3X3X3X3X3X3X3X3X3X3X3X* * - p a H.R.T.G.G.L.H.G.G.G.p u i a a q - - 3X3X3X3X3X3X3X3X3X3X3X3X3X3X3X3X3X3X3X3X3X3X3X",
"3X3X3X3X3X3X3X3X3X3X3X3X3X3X3X3X3X3X* * ; a a J.R.T.K.J.J.J.J.H.J.a u i a a 9 * * 3X3X3X3X3X3X3X3X3X3X3X3X3X3X3X3X3X3X3X3X3X3X3X",
"3X3X3X3X3X3X3X3X3X3X3X3X3X3X3X3X3X3X* * ; u i G.T.T.J.T.J.T.J.T.K.p w w i i ; % O 3X3X3X3X3X3X3X3X3X3X3X3X3X3X3X3X3X3X3X3X3X3X3X",
"3X3X3X3X3X3X3X3X3X3X3X3X3X3X3X3X3X3X* * - 0 9 p K.K.R.R.R.T.R.R.R.p 0 0 0 9 %     3X3X3X3X3X3X3X3X3X3X3X3X3X3X3X3X3X3X3X3X3X3X3X",
"3X3X3X3X3X3X3X3X3X3X3X3X3X3X3X3X3X3X* * - 8 8 p K.J.R.T.T.R.R.R.R.i 8 8 0 0 %     3X3X3X3X3X3X3X3X3X3X3X3X3X3X3X3X3X3X3X3X3X3X3X",
"3X3X3X3X3X3X3X3X3X3X3X3X3X3X3X3X3X3X* * * * * w F.' u u u w w u u - o o * * o   + F R 3X3X3X3X3X3X3X3X3X3X3X3X3X3X3X3X3X3X3X3X3X",
"3X3X3X3X3X3X3X3X3X3X3X3X3X3X3X3X3X3X* * * O O q a p 9 8 8 8 0 0 9 %     % % .   X G R 3X3X3X3X3X3X3X3X3X3X3X3X3X3X3X3X3X3X3X3X3X",
"3X3X3X3X3X3X3X3X3X3X3X3X3X3X3X3X3X3X, * * & O q a i 8 ; ; 8 , 8 ; O     % % .   X G E R 3X3X3X3X3X3X3X3X3X3X3X3X3X3X3X3X3X3X3X3X",
"3X3X3X3X3X3X3X3X3X3X3X3X3X3X3X3Xi.i.P * = % O 0 u w - * - * * * * o   . % & .   X G J J ! ! 3X3X3X3X3X3X3X3X3X3X3X3X3X3X3X3X3X3X",
"3X3X3X3X3X3X3X3X3X3X3X3X3X3X3X3Xi.7.P - * % O 0 u w - * * * * * * o     O % .   @ H J W ! ! 3X3X3X3X3X3X3X3X3X3X3X3X3X3X3X3X3X3X",
"3X3X3X3X3X3X3X3X3X3X3X3X3X3X7.p.c.b.t.w.( = O 0 u w - * * * * * * o   . O % # # : G E W ! ! 3X3X3X3X3X3X3X3X3X3X3X3X3X3X3X3X3X3X",
"3X3X3X3X3X3X3X3X3X3X3X3X3X7.7.p.v.].n.].t.- O 0 i w - * * * * * * o     O % < : 4 H K R ! ! 3X3X3X3X3X3X3X3X3X3X3X3X3X3X3X3X3X3X",
"3X3X3X3X3X3X3X3X3X3X3X3X3Xp.p.s.[.{. X%X`.3 , 3 0 ; % % O O O & O o . . O % < 2 6 E R R ! ! 3X3X3X3X3X3X3X3X3X3X3X3X3X3X3X3X3X3X",
"3X3X3X3X3X3X3X3X3X3X3X3X3Xx.x.c.%X&X-X1X;X@.@.,                   o % % % O , 6 5 W ! ! ! ! ! ! 3X3X3X3X3X3X3X3X3X3X3X3X3X3X3X3X",
"3X3X3X3X3X3X3X3X3X3X3X3X3Xx.j.c.%X&X-X2X;X<.@.>                   o & & & & , 5 S ! ^ ^ ! ! ! ! 3X3X3X3X3X3X3X3X3X3X3X3X3X3X3X3X",
"3X3X3X3X3X3X3X3X3X3X3X3X3Xx.x.c.].[.*X2X1X=X.X*.D D 1 1 1 1 1 1 > 5 D E ^ ^ o.@.O.@.@.O.o.~ ! ! 3X3X3X3X3X3X3X3X3X3X3X3X3X3X3X3X",
"3X3X3X3X3X3X3X3X3X3X3X3X3Xj.x.x.n.].&X2X2X2X2X`.O.~ S 5 S S A A A H ! ~ 3.3.3.3.3.,.2.@.O.o.! W 3X3X3X3X3X3X3X3X3X3X3X3X3X3X3X3X",
"3X3X3X3X3X3X3X3X3X3X3X3X3Xc.c.c.v.].*X2X2X2X1XXXt.r.( ) / / Q Q Q _ ;.<.y.i.4.3.3.2.2.>.:.O.! ! 3X3X3X3X3X3X3X3X3X3X3X3X3X3X3X3X",
"3X3X3X3X3X3X3X3X3X3X3Xx.j.v.n.].].n.;X2X1X2X2X1X1X1X1X1X*X&X&X[.[.[.].v.x.x.i.3.3.3.3.2.,.:.~ ! 3X3X3X3X3X3X3X3X3X3X3X3X3X3X3X3X",
"3X3X3X3X3X3X3X3X3X3X3Xx.x.b.].].v.v.&X1X1X2X2X2X2X2X2X2X-X&X&X X X].].v.x.x.i.3.3.3.3.2.,.:.! ! 3X3X3X3X3X3X3X3X3X3X3X3X3X3X3X3X",
"3X3X3X3X3X3X3X3X3X3X3Xx.x.v.].v.y.y.]. X.X1X2X1X2X2X2X1X-X&X%X X X].].v.x.x.a.9.7.3.3.2.,.:.o.o.3X3X3X3X3X3X3X3X3X3X3X3X3X3X3X3X",
"3X3X3X3X3X3X3X3X3X3X3Xj.x.c.].v.5.5.k.].[.1X2X2X2X2X2X2X-X&X&X X[.[.].].x.x.s.a.9.3.3.2.,.,.@.o.3X3X3X3X3X3X3X3X3X3X3X3X3X3X3X3X",
"3X3X3X3X3X3X3X3X3X3X3Xx.x.v.].v.y.6.d.b.b.*X*X*X*X*X*X-X&X.X.X[.[.n.v.n.j.j.j.8.a.4.5.2.,.:.O.o.3X3X3X3X3X3X3X3X3X3X3X3X3X3X3X3X",
"3X3X3X3X3X3X3X3X3X3X3Xx.j.c.].v.x.x.i.4.6.v.].n.].].].].].n.n.n.n.v.j.j.8.8.8.a.9.4.5.2.,.,.O.O.3X3X3X3X3X3X3X3X3X3X3X3X3X3X3X3X",
"3X3X3X3X3X3X3X3X3X3X3Xx.x.c.].v.x.x.i.3.y.v.v.n.].v.].n.n.n.n.n.n.c.j.j.a.8.a.8.p.4.3.2.,.,.O.O.3X3X3X3X3X3X3X3X3X3X3X3X3X3X3X3X",
"3X3X3X3X3X3X3X3X3X3X3Xp.p.c.].].v.v.j.8.p.s.j.c.].].n.].n.n.v.v.c.x.j.j.a.a.a.8.8.4.5.2.,.:.O.O.3X3X3X3X3X3X3X3X3X3X3X3X3X3X3X3X",
"3X3X3X3X3X3X3X3X3X3X3X7.7.c.].].n.n.j.a.8.8.8.c.].].n.n.].].n.j.j.j.x.j.a.a.8.8.8.3.3.2.,.,.O.O.3X3X3X3X3X3X3X3X3X3X3X3X3X3X3X3X",
"3X3X3X3X3X3X3X3X3X3X3Xr.r.t.`.`.`.`.l.l.z.l.l.l.z.k.b.x.b.b.j.k.k.s.s.s.a.9.u.t.t.e.r.w.w.w.( ( ) 3X3X3X3X3X3X3X3X3X3X3X3X3X3X3X",
"3X3X3X3X3X3X3X3X3X3X3XK.K.K.J.K.K.J.T.R.R.R.R.*.O.1.6.7.7.7.7.7.7.7.7.7.y.7.w.J.K.K.J.J.K.H.a a a a a 3X3X3X3X3X3X3X3X3X3X3X3X3X",
"3X3X3X3X3X3X3X3X3X3X3XJ.J.J.K.J.K.K.K.E.E.T.T.*.o.O.6.6.6.6.6.3.6.6.6.6.y.y.U.K.H.J.J.J.K.H.a a a a a 3X3X3X3X3X3X3X3X3X3X3X3X3X",
"3X3X3X3X3X3X3X3X3XK.K.T.T.T.T.T.K.J.H.H.G.' a p y T ^ ~ ~ ~ ~ ! ! T s ' P.P.T.T.T.T.T.K.K.K.H.L.F.a a i u 3X3X3X3X3X3X3X3X3X3X3X",
"3X3X3X3X3X3X3X3XJ.K.J.R.R.R.R.T.K.J.H.G.F.p p u u t E R K K K G G U u i H.H.T.E.R.R.R.K.J.K.K.K.F.a p u u 3X3X3X3X3X3X3X3X3X3X3X",
"3X3X3X3X3X3X3X3XK.I.T.T.R.T.T.T.K.J.G.F.F.p i i u u U Y L L U U U y i p H.H.K.R.R.R.R.K.J.J.J.J.L.F.a i i i 3X3X3X3X3X3X3X3X3X3X",
"3X3X3X3X3X3XK.J.T.T.T.R.R.K.J.H.K.K.F.a a p p i u u q q 9 0 9 u u p a F.G.G.K.R.R.R.R.T.J.J.J.J.J.J.H.F.a i u u 3X3X3X3X3X3X3X3X",
"3X3X3X3X3X3XK.J.T.R.E.E.R.T.J.J.H.J.F.a a p p i u w q q 9 0 9 u u p a F.G.G.J.E.R.R.R.K.J.J.J.J.J.J.H.' a i u u 3X3X3X3X3X3X3X3X",
"3X3X3X3XJ.K.T.T.T.R.T.I.K.K.J.H.F.F.F.a a p i u u u q q q q q u u p a a G.G.H.K.K.L.L.L.G.L.L.G.H.J.J.J.H.p u u q q 3X3X3X3X3X3X",
"3X3X3XK.J.K.R.R.R.T.T.J.J.J.J.H.a a a a p p p i u w q q q q q u u p a a G.G.H.K.J.G.G.G.G.G.G.G.L.J.J.J.K.a u u q q 3X3X3X3X3X3X",
"3X3X3XL.L.L.K.K.K.T.T.K.J.H.G.G.a a p p p i i i u u w q q q q u u p a a a a G.L.L.L.G.H.H.H.H.H.J.J.J.J.K.a i u w w q 3X3X3X3X3X"
};
