/* XPM */
static char *result[] = {
/* columns rows colors chars-per-pixel */
"64 64 162 2 ",
"   c #020202",
".  c #090909",
"X  c #0E0905",
"o  c #19130F",
"O  c #121212",
"+  c #1E1E1E",
"@  c #25170D",
"#  c #291A10",
"$  c #2E261C",
"%  c #382D1F",
"&  c #372518",
"*  c #1F1F20",
"=  c #1F2020",
"-  c #232323",
";  c #2C2C2C",
":  c #312F2E",
">  c #342A24",
",  c #38322E",
"<  c #353535",
"1  c #3A3A3A",
"2  c #412F16",
"3  c #492F1E",
"4  c #442A1A",
"5  c #553D1C",
"6  c #593F1E",
"7  c #433224",
"8  c #4D392C",
"9  c #483A32",
"0  c #5A3F30",
"q  c #524136",
"w  c #6A4128",
"e  c #724B27",
"r  c #7E4F2B",
"t  c #654C3C",
"y  c #744D33",
"u  c #464646",
"i  c #464748",
"p  c #474848",
"a  c #494949",
"s  c #545454",
"d  c #5D5D5D",
"f  c #615146",
"g  c #6A594F",
"h  c #65554A",
"j  c #7E5740",
"k  c #6F5F55",
"l  c #69635F",
"z  c #76665B",
"x  c #786559",
"c  c #646464",
"v  c #6E6560",
"b  c #6B6B6B",
"n  c #6E6F70",
"m  c #6E7071",
"M  c #737373",
"N  c #7C7C7C",
"B  c #83522E",
"V  c #8B5934",
"C  c #825330",
"Z  c #975F36",
"A  c #9C633B",
"S  c #A7673F",
"D  c #AB693F",
"F  c #825B42",
"G  c #8F6E5A",
"H  c #92705B",
"J  c #A56741",
"K  c #A46842",
"L  c #AA6941",
"P  c #B26E43",
"I  c #B47044",
"U  c #BA7347",
"Y  c #BF7648",
"T  c #A7795E",
"R  c #AE7D5E",
"E  c #A17255",
"W  c #A37B63",
"Q  c #C07749",
"!  c #C47A4B",
"~  c #C97C4C",
"^  c #BC835D",
"/  c #A98067",
"(  c #A88069",
")  c #BC8865",
"_  c #BE8C6C",
"`  c #B58C74",
"'  c #BC9275",
"]  c #BF967D",
"[  c #CB8356",
"{  c #D58451",
"}  c #D98653",
"|  c #DD8854",
" . c #E48A56",
".. c #E98C57",
"X. c #E78C58",
"o. c #E88C58",
"O. c #EE925C",
"+. c #F1955C",
"@. c #FB9B5F",
"#. c #C18762",
"$. c #C58E6C",
"%. c #C88A63",
"&. c #D58E61",
"*. c #CB916E",
"=. c #D8976F",
"-. c #D99164",
";. c #C79173",
":. c #CB9675",
">. c #D09572",
",. c #D59A76",
"<. c #DC9C73",
"1. c #ED9563",
"2. c #EE9865",
"3. c #EA9C6C",
"4. c #F19763",
"5. c #F39964",
"6. c #FC9C61",
"7. c #F59F69",
"8. c #F89E69",
"9. c #EEA06F",
"0. c #F4A06E",
"q. c #FBA26D",
"w. c #FCA066",
"e. c #F6A573",
"r. c #FCA571",
"t. c #F7A876",
"y. c #FCA976",
"u. c #FCAD7D",
"i. c #F6AC7D",
"p. c #FCB07F",
"a. c #828282",
"s. c #8C8C8C",
"d. c #949494",
"f. c #979899",
"g. c #999999",
"h. c #A99184",
"j. c #B29B8D",
"k. c #9E9FA0",
"l. c #A4A4A4",
"z. c #A8A8A8",
"x. c #D7A789",
"c. c #D8A789",
"v. c #D6A181",
"b. c #E1A886",
"n. c #E2A987",
"m. c #FBAF81",
"M. c #F6AE82",
"N. c #F5B086",
"B. c #FCB081",
"V. c #FCB78C",
"C. c #FCBA93",
"Z. c #FDBE99",
"A. c #FCC4A3",
"S. c #FCC7A8",
"D. c #FCC8A8",
"F. c #F4CBB2",
"G. c #FCCDB3",
"H. c #FDD0B7",
"J. c #FBD4BD",
"K. c #FBD6C1",
"L. c #FCD8C5",
"P. c None",
/* pixels */
"P.P.P.P.P.P.P.P.P.P.P.P.P.P.P.P.P.P.P.P.P.P.P.P.P.s s s s s s s s P.P.P.P.P.P.P.P.P.P.P.P.P.P.P.P.P.P.P.P.P.P.P.P.P.P.P.P.P.P.P.",
"P.P.P.P.P.P.P.P.P.P.P.P.P.P.P.P.P.P.P.P.P.P.P.P.P.s s c M m d s s P.P.P.P.P.P.P.P.P.P.P.P.P.P.P.P.P.P.P.P.P.P.P.P.P.P.P.P.P.P.P.",
"P.P.P.P.P.P.P.P.P.P.P.P.P.P.P.P.P.P.P.P.P.P.P.P.P.s s c M M d s d P.P.P.P.P.P.P.P.P.P.P.P.P.P.P.P.P.P.P.P.P.P.P.P.P.P.P.P.P.P.P.",
"P.P.P.P.P.P.P.P.P.P.P.P.P.P.P.P.P.P.P.P.P.P.a p s M M s.k.k.H M n s i a P.P.P.P.P.P.P.P.P.P.P.P.P.P.P.P.P.P.P.P.P.P.P.P.P.P.P.P.",
"P.P.P.P.P.P.P.P.P.P.P.P.P.P.P.P.P.P.P.P.P.P.p i s a.N d.z.l.s.N N a p p P.P.P.P.P.P.P.P.P.P.P.P.P.P.P.P.P.P.P.P.P.P.P.P.P.P.P.P.",
"P.P.P.P.P.P.P.P.P.P.P.P.P.P.P.P.P.P.P.P.P.P.p i s N N d.z.z.s.N M s p p P.P.P.P.P.P.P.P.P.P.P.P.P.P.P.P.P.P.P.P.P.P.P.P.P.P.P.P.",
"P.P.P.P.P.P.P.P.P.P.P.P.P.P.P.P.P.P.P.P.P.P.i i d N N d.z.z.s.N N a p p P.P.P.P.P.P.P.P.P.P.P.P.P.P.P.P.P.P.P.P.P.P.P.P.P.P.P.P.",
"P.P.P.P.P.P.P.P.P.P.P.P.P.P.P.P.P.P.P.P.P.P.i u s N N d.z.z.s.N N s p i P.P.P.P.P.P.P.P.P.P.P.P.P.P.P.P.P.P.P.P.P.P.P.P.P.P.P.P.",
"P.P.P.P.P.P.P.P.P.P.P.P.P.P.P.P.P.P.P.P.P.P.d d d b b a.g.f.M b c d d d P.P.P.P.P.P.P.P.P.P.P.P.P.P.P.P.P.P.P.P.P.P.P.P.P.P.P.P.",
"P.P.P.P.P.P.P.P.P.P.P.P.P.P.P.P.P.P.P.a.N N N N b a i d a.N d i a M N N N N N P.P.P.P.P.P.P.P.P.P.P.P.P.P.P.P.P.P.P.P.P.P.P.P.P.",
"P.P.P.P.P.P.P.P.P.P.P.P.P.P.P.P.P.P.P.N N N N N b a i c N N s u s M N N N N N P.P.P.P.P.P.P.P.P.P.P.P.P.P.P.P.P.P.P.P.P.P.P.P.P.",
"P.P.P.P.P.P.P.P.P.P.P.P.P.P.P.P.P.; < m N N s.s.M 1 1 u s s u 1 9 c n M N N m s s P.P.P.P.P.P.P.P.P.P.P.P.P.P.P.P.P.P.P.P.P.P.P.",
"P.P.P.P.P.P.P.P.P.P.P.P.P.P.P.P.; ; < b N N f.g.N ; ; ; ; ; ; ; < d c c N N b s s P.P.P.P.P.P.P.P.P.P.P.P.P.P.P.P.P.P.P.P.P.P.P.",
"P.P.P.P.P.P.P.P.P.P.P.P.P.P.P.P.; ; ; b N ( d.g.M : ; ; ; : ; ; : d c b N N b s s P.P.P.P.P.P.P.P.P.P.P.P.P.P.P.P.P.P.P.P.P.P.P.",
"P.P.P.P.P.P.P.P.P.P.P.P.P.P.P.P.; ; ; b N a.k.z.s.d d d c c d d d c c b N N b a a P.P.P.P.P.P.P.P.P.P.P.P.P.P.P.P.P.P.P.P.P.P.P.",
"P.P.P.P.P.P.P.P.P.P.P.P.P.P.P.P.; ; ; m N a.z.z.g.M M M N a.M m n c c b N N c i a P.P.P.P.P.P.P.P.P.P.P.P.P.P.P.P.P.P.P.P.P.P.P.",
"P.P.P.P.P.P.P.P.P.P.P.P.P.P.P.P.; ; ; b N a.l.z.f.M M N N N N m M c c b N N c u u P.P.P.P.P.P.P.P.P.P.P.P.P.P.P.P.P.P.P.P.P.P.P.",
"P.P.P.P.P.P.P.P.P.P.P.P.P.P.P.P.; ; ; b N a.l.z.k.d.d.d.d.d.d.d.s.b c b N a.s < < P.P.P.P.P.P.P.P.P.P.P.P.P.P.P.P.P.P.P.P.P.P.P.",
"P.P.P.P.P.P.P.P.P.P.P.P.P.P.P.P.; ; : b N a.l.z.k.k.f.f.f.f.f.f.d.b c b N N d ; ; P.P.P.P.P.P.P.P.P.P.P.P.P.P.P.P.P.P.P.P.P.P.P.",
"P.P.P.P.P.P.P.P.P.P.P.P.P.P.P.P.; ; : c m N k.z.k.f.k.k.k.g.k.g.d.c s c M M a + - P.P.P.P.P.P.P.P.P.P.P.P.P.P.P.P.P.P.P.P.P.P.P.",
"P.P.P.P.P.P.P.P.P.P.P.P.P.P.P.P.; ; ; u a s d.g.k.l.z.z.z.z.l.z.k.s a a a a ;     P.P.P.P.P.P.P.P.P.P.P.P.P.P.P.P.P.P.P.P.P.P.P.",
"P.P.P.P.P.P.P.P.P.P.P.P.P.P.P.P.; ; ; u a s d.g.k.z.z.z.z.z.z.z.l.s p a a a ;     P.P.P.P.P.P.P.P.P.P.P.P.P.P.P.P.P.P.P.P.P.P.P.",
"P.P.P.P.P.P.P.P.P.P.P.P.P.P.P.P.; ; ; < 1 u a.s.s.N a.a.a.a.( a.N < ; ; 1 1 +     4 P.P.P.P.P.P.P.P.P.P.P.P.P.P.P.P.P.P.P.P.P.P.",
"P.P.P.P.P.P.P.P.P.P.P.P.P.P.P.P.; ; ; - + ; M N m i i i i i u p 9 .   . + + O     w L L P.P.P.P.P.P.P.P.P.P.P.P.P.P.P.P.P.P.P.P.",
"P.P.P.P.P.P.P.P.P.P.P.P.P.P.P.P.; ; ; - * ; m N b i i i i i p i u .   . + * O     w D S P.P.P.P.P.P.P.P.P.P.P.P.P.P.P.P.P.P.P.P.",
"P.P.P.P.P.P.P.P.P.P.P.P.P.P.+.+.t - ; - * ; b n d 1 1 1 < < 1 1 < .   . + - O     w L L P I P.P.P.P.P.P.P.P.P.P.P.P.P.P.P.P.P.P.",
"P.P.P.P.P.P.P.P.P.P.P.P.P.P.+.+.y ; ; - = ; d c s ; ; ; ; ; ; ; = .   . + + O     w L S P I I P.P.P.P.P.P.P.P.P.P.P.P.P.P.P.P.P.",
"P.P.P.P.P.P.P.P.P.P.P.P.P.P.+.+.F : : - = ; d c s ; ; ; ; ; ; ; ;     . # - O     w L L P P I P.P.P.P.P.P.P.P.P.P.P.P.P.P.P.P.P.",
"P.P.P.P.P.P.P.P.P.P.P.+.O.7.t.u.<.>.$.9 + ; d c s ; ; ; ; ; ; ; ;     . = = - 2 % B L L P I I P.P.P.P.P.P.P.P.P.P.P.P.P.P.P.P.P.",
"P.P.P.P.P.P.P.P.P.P.P.+.+.7.B.B.B.B.i.q + ; k c s ; ; ; ; ; ; ; - .   . = = % 6 5 V L L P I I P.P.P.P.P.P.P.P.P.P.P.P.P.P.P.P.P.",
"P.P.P.P.P.P.P.P.P.P.P.4.+.0.B.B.V.V.N.t $ , s d u - - - ; - ; ; - .   . * $ > 6 6 V L L P I I P.P.P.P.P.P.P.P.P.P.P.P.P.P.P.P.P.",
"P.P.P.P.P.P.P.P.P.P.P.q.q.m.A.A.H.J.H.%.U A o . .   .             + + + = + 7 e e A I I I I I I I I P.P.P.P.P.P.P.P.P.P.P.P.P.P.",
"P.P.P.P.P.P.P.P.P.P.P.r.r.B.A.A.H.L.K.-.~ D X                     + * + + + 7 e e A P I I I I I I I P.P.P.P.P.P.P.P.P.P.P.P.P.P.",
"P.P.P.P.P.P.P.P.P.P.P.q.r.m.Z.Z.G.L.K.b.=.#.3 & # @ @ @ @ @ @ @ # 7 8 8 q 0 y Z Z L Q Q U U U I I I P.P.P.P.P.P.P.P.P.P.P.P.P.P.",
"P.P.P.P.P.P.P.P.P.P.P.r.r.y.B.B.D.L.L.K.K.F.[ ! P B r r r r r r B D P Y  . . ..... .| } ~ ~ ~ I I I P.P.P.P.P.P.P.P.P.P.P.P.P.P.",
"P.P.P.P.P.P.P.P.P.P.P.r.r.y.B.B.S.L.L.K.L.F.[ ~ D B r r r r r B B L P Y  ... ...X.| | } ~ ~ ! I I I P.P.P.P.P.P.P.P.P.P.P.P.P.P.",
"P.P.P.P.P.P.P.P.P.P.r.u.u.u.u.u.S.L.L.L.L.J.n.n.,.] ' _ ) ) ) ^ ) -.[ 1.5.5.O.o.X. . . .{ { [ I I I P.P.P.P.P.P.P.P.P.P.P.P.P.P.",
"P.P.P.P.P.P.P.P.r.r.r.u.B.B.u.B.S.L.L.L.L.L.L.L.L.L.L.H.A.S.C.C.C.B.B.u.r.r.5.o.X...X.X.| | { U I I P.P.P.P.P.P.P.P.P.P.P.P.P.P.",
"P.P.P.P.P.P.P.P.r.q.r.B.m.B.m.u.D.K.L.L.L.K.L.L.L.L.L.H.A.A.C.V.V.B.m.u.r.r.5.o... .X. .| | { I I I P.P.P.P.P.P.P.P.P.P.P.P.P.P.",
"P.P.P.P.P.P.P.P.r.r.y.u.m.t.5.2.M.Z.Z.J.L.L.L.L.L.L.L.H.A.A.Z.C.C.B.m.u.r.q.8.5.@.O.X...| | } ! Q Q P.P.P.P.P.P.P.P.P.P.P.P.P.P.",
"P.P.P.P.P.P.P.P.r.r.r.m.B.e.X...0.p.B.J.L.L.K.L.L.L.L.G.A.A.C.C.V.B.B.u.r.r.w.6.@.+.....| | } ~ ~ ~ P.P.P.P.P.P.P.P.P.P.P.P.P.P.",
"P.P.P.P.P.P.P.P.q.r.y.u.u.e.o.X.0.i.B.D.J.K.J.K.J.J.J.G.A.A.C.V.V.B.u.u.q.q.q.@.6.+.X.X.| | } ~ ~ ~ P.P.P.P.P.P.P.P.P.P.P.P.P.P.",
"P.P.P.P.P.P.P.P.r.r.r.p.B.y.8.q.5.O.1.M.V.V.C.V.V.V.V.V.B.V.N.B.m.y.r.r.6.8.6.@.@.O.o.X.| | } ~ ~ ~ P.P.P.P.P.P.P.P.P.P.P.P.P.P.",
"P.P.P.P.P.P.P.P.q.r.y.p.B.u.r.r.1.X.X.t.p.p.p.u.p.p.p.p.B.B.p.p.u.r.r.q.6.6.6.6.@.O.o.X.| | } ~ ~ ~ P.P.P.P.P.P.P.P.P.P.P.P.P.P.",
"P.P.P.P.P.P.P.P.q.w.r.p.u.u.y.y.5.O.O.r.u.u.p.p.B.p.B.p.B.m.u.u.u.r.r.q.6.6.@.6.6.+.X.X.| | } ~ ~ ~ P.P.P.P.P.P.P.P.P.P.P.P.P.P.",
"P.P.P.P.P.P.P.P.+.+.5.i.p.p.p.p.q.@.6.6.@.w.u.p.p.B.p.B.B.m.y.r.r.r.q.q.6.6.6.6.@.+.X...| | } ~ ! ~ P.P.P.P.P.P.P.P.P.P.P.P.P.P.",
"P.P.P.P.P.P.P.P.+.+.5.p.p.p.B.p.q.@.@.@.@.8.p.p.p.B.p.N.B.B.y.r.r.q.r.q.6.@.6.6.@.+... . .} } ~ ~ ~ P.P.P.P.P.P.P.P.P.P.P.P.P.P.",
"P.P.P.P.P.P.P.P.>.>.,.c.c.c.x.x.9.+.+.+.@.@.3.3.9.t.r.r.t.r.8.8.8.8.8.8.@.@.2.,.<.>.*.*.$.$._ R R W P.P.P.P.P.P.P.P.P.P.P.P.P.P.",
"P.P.P.P.P.P.P.P.g.g.g.g.g.g.g.d.;.o.o.o.o. .~ ~ { O.+.+.+.+.+.O.+.+.O.+.+.+.:.g.g.d.g.g.d.f.d.N N N N N P.P.P.P.P.P.P.P.P.P.P.P.",
"P.P.P.P.P.P.P.P.g.g.g.d.d.g.g.g.;.o.o.o... .~ ! { +.+.+.+.+.+.+.+.+.+.+.+.+.:.g.g.g.g.g.g.g.d.a.N N N N P.P.P.P.P.P.P.P.P.P.P.P.",
"P.P.P.P.P.P.g.g.k.k.l.k.k.k.d.g.d.` ` ( W W H G E ! ~ ! ~ ! ~ ~ ! W W W ] ] j.l.l.k.l.g.g.g.d.s.s.s.N N M c c P.P.P.P.P.P.P.P.P.",
"P.P.P.P.P.d.g.g.z.z.z.z.z.l.g.g.s.s.s.N M n c c x J L J S S S J K l c n f.d.g.z.z.z.z.z.g.g.f.g.g.s.N N m c c P.P.P.P.P.P.P.P.P.",
"P.P.P.P.P.g.d.g.l.z.z.z.z.l.d.g.f.s.s.M n n c c x J S S S J J J K v c M g.d.l.z.z.z.l.z.g.g.g.f.g.s.N N n c b P.P.P.P.P.P.P.P.P.",
"P.P.P.g.d.l.l.l.z.z.z.g.g.k.g.g.s.H a.m n n c c k k k s f f k z z M M N s.s.g.z.z.z.z.z.g.f.g.g.g.g.d.s.a.M m c c b P.P.P.P.P.P.",
"P.P.P.g.g.l.z.z.z.z.l.g.g.g.d.g.s.N N M M n c c d s s a u p d c c N N a.s.s.d.z.z.z.z.l.g.f.f.f.g.g.d.g.s.N N b c c P.P.P.P.P.P.",
"P.P.g.g.g.l.z.z.z.l.l.g.g.g.d.d.a.N N M n n c c d s s s p a d c c N N a.s.s.g.z.l.l.l.l.f.f.f.f.d.g.g.g.s.( N b c c P.P.P.P.P.P.",
"g.g.l.z.l.z.z.l.g.g.k.f.f.d.N N N N N M M b c c d s s s s s c c c N N a.s.s.d.f.k.s.s.d.s.s.s.s.s.d.g.g.g.d.d.M c c s s s P.P.P.",
"d.d.l.z.z.z.z.z.g.g.f.f.f.s.N N N N N M M b c c d s s s s s d c c N N N s.s.d.f.f.d.s.s.s.s.s.s.s.d.d.g.g.d.g.M c d s s s P.P.P.",
"d.d.d.g.g.l.l.l.g.g.d.f.d.s.N N M N M b b b c c d s s s s s d c c N N N a.a.s.s.d.s.s.s.d.d.d.d.d.d.d.g.g.d.g.M b c d s s P.P.P.",
"N N N N N d.g.d.g.g.d.H N M n m b c c c c c c c c s s s s s d c c N N M c c m N N s.k.f.l.l.l.z.z.k.g.g.g.g.g.a.N N c c d a a a ",
"N M N N N s.f.g.f.f.d.N N M m m b c c c c c c c d s s s s s c c c N N M c c b N H d.f.f.l.z.z.z.z.k.g.d.g.g.g.a.N N c c d a a i ",
"s.s.s.s.d.g.g.l.f.f.d.s.s.N N M M b b b c b c c d s s s s s d c c M m b c c M s.a.d.k.f.k.k.l.z.z.l.k.k.g.g.d.a.N N b c d a p a ",
"g.g.l.l.z.z.z.z.g.f.g.f.g.s.N N N N N M M b c c c s s s s s d c c c c c c l N g.g.g.g.d.g.g.g.z.z.z.z.z.k.g.g.a.N N c c d a p p ",
"g.g.g.z.l.z.z.z.g.g.g.g.g.s.N N N N N M M b c c d s s s s s d c c c c c c c N g.d.g.g.g.g.g.g.z.z.z.z.z.g.g.g.a.N M c c d a p p "
};
