/* XPM */
static char *_1b8e50e5e10432b99cf1758ebd17647lzQKiNJpN7QuQmVr[] = {
/* columns rows colors chars-per-pixel */
"64 64 255 2 ",
"   c #0C0E17",
".  c #110E13",
"X  c #0E111B",
"o  c #13131B",
"O  c #1B1516",
"+  c #130B0D",
"@  c #231816",
"#  c #292317",
"$  c #171924",
"%  c #0E1321",
"&  c #1E222E",
"*  c #292626",
"=  c #343036",
"-  c #201F29",
";  c #433335",
":  c #42363B",
">  c #4B3A3C",
",  c #46393B",
"<  c #593C39",
"1  c #49362B",
"2  c #623B3B",
"3  c #59453C",
"4  c #4D4331",
"5  c #64453C",
"6  c #6B4B32",
"7  c #6A5C33",
"8  c #3B3B45",
"9  c #3A3E50",
"0  c #443B43",
"q  c #4A3B43",
"w  c #443A48",
"e  c #553D44",
"r  c #4F3950",
"t  c #683E4A",
"y  c #3D424F",
"u  c #43454C",
"i  c #4A454A",
"p  c #584648",
"a  c #474854",
"s  c #5C4955",
"d  c #5A5659",
"f  c #59514A",
"g  c #674948",
"h  c #754849",
"j  c #6A544B",
"k  c #75544C",
"l  c #694B55",
"z  c #774956",
"x  c #6A5657",
"c  c #735B54",
"v  c #7C5C54",
"b  c #745A5C",
"n  c #7B5D5B",
"m  c #775457",
"M  c #7C635C",
"N  c #796858",
"B  c #786C4F",
"V  c #4C5367",
"C  c #565A69",
"Z  c #4F546A",
"A  c #6D5362",
"S  c #6A5964",
"D  c #785965",
"F  c #765265",
"G  c #5E6373",
"H  c #6A6567",
"J  c #7B626D",
"K  c #796567",
"L  c #7B7369",
"P  c #696A75",
"I  c #7C6372",
"U  c #796A7A",
"Y  c #767478",
"T  c #6E717A",
"R  c #86595A",
"E  c #8B5655",
"W  c #84645C",
"Q  c #8C645C",
"!  c #846B5D",
"~  c #8A6659",
"^  c #96665A",
"/  c #84725B",
"(  c #897758",
")  c #8C794D",
"_  c #865A67",
"`  c #945C6A",
"'  c #8B5E71",
"]  c #9E5F72",
"[  c #8C6464",
"{  c #886867",
"}  c #946B63",
"|  c #986A69",
" . c #8A7767",
".. c #97766C",
"X. c #8D6374",
"o. c #8C6C7C",
"O. c #856878",
"+. c #946B7C",
"@. c #986778",
"#. c #8A7777",
"$. c #977676",
"%. c #A56C66",
"&. c #A87469",
"*. c #A56B78",
"=. c #A77778",
"-. c #B47B73",
";. c #B57B77",
":. c #B47A6F",
">. c #A1665F",
",. c #86723D",
"<. c #978559",
"1. c #9A8478",
"2. c #93866C",
"3. c #A8847A",
"4. c #B7837B",
"5. c #AC9A6D",
"6. c #B7A574",
"7. c #C2877F",
"8. c #75768E",
"9. c #8C7283",
"0. c #977585",
"q. c #936E81",
"w. c #A97688",
"e. c #B47A88",
"r. c #AC7D92",
"t. c #B87B92",
"y. c #A56E84",
"u. c #C47C97",
"i. c #79849A",
"p. c #85858A",
"a. c #9D8394",
"s. c #948A8F",
"d. c #A78787",
"f. c #B88589",
"g. c #A99687",
"h. c #B8948E",
"j. c #A88997",
"k. c #B8889A",
"l. c #AA9599",
"z. c #B69799",
"x. c #B5A688",
"c. c #B8A698",
"v. c #BEB098",
"b. c #AFA29C",
"n. c #9497AE",
"m. c #B494A2",
"M. c #BB94A4",
"N. c #B99BA5",
"B. c #AB92A1",
"V. c #B9A7A9",
"C. c #BCA7B2",
"Z. c #AEAAAF",
"A. c #9FA1BA",
"S. c #C78C89",
"D. c #C7998D",
"F. c #D39D89",
"G. c #C48B94",
"H. c #C6889A",
"J. c #C99896",
"K. c #D69999",
"L. c #D08D9F",
"P. c #D5A28D",
"I. c #CAA497",
"U. c #D7A698",
"Y. c #C2B596",
"T. c #C5B59A",
"R. c #C8B89B",
"E. c #CDA889",
"W. c #E3AB9B",
"Q. c #C88CA3",
"!. c #CB94AB",
"~. c #C49CAD",
"^. c #C697A9",
"/. c #D898A6",
"(. c #CC9DB2",
"). c #C79EB0",
"_. c #D49DB3",
"`. c #D18DA6",
"'. c #C5A8A9",
"]. c #D9A7A4",
"[. c #CDBBA4",
"{. c #C9B6A9",
"}. c #D5B7AA",
"|. c #CBA3B3",
" X c #CBA9B5",
".X c #C7A9B7",
"XX c #D3ABBC",
"oX c #DBACBE",
"OX c #D6A5B8",
"+X c #C9B4B9",
"@X c #D5B7BA",
"#X c #E4A6A9",
"$X c #ECBCAC",
"%X c #E5B5A8",
"&X c #E4ABBE",
"*X c #E6ABB5",
"=X c #EBB8B9",
"-X c #F1BBBA",
";X c #F1BFAE",
":X c #E09C9D",
">X c #D5C5AA",
",X c #D9C3B7",
"<X c #CEC2B4",
"1X c #E9C4B9",
"2X c #F3C4B4",
"3X c #F4C3BC",
"4X c #F7C9BC",
"5X c #E8D3BF",
"6X c #AEB3CD",
"7X c #CCB6C2",
"8X c #DBB4C4",
"9X c #D6BAC7",
"0X c #DEADC2",
"qX c #E4AEC1",
"wX c #EAADC2",
"eX c #E4B1C3",
"rX c #EAB2C5",
"tX c #E7BBC9",
"yX c #F3BAC6",
"uX c #F8BDD1",
"iX c #BEC6E1",
"pX c #D9C5C8",
"aX c #DCC7D3",
"sX c #D0CBC7",
"dX c #E5C9CA",
"fX c #F4C2C3",
"gX c #FAC7C5",
"hX c #EAD6C8",
"jX c #FCD2C4",
"kX c #FCD4CA",
"lX c #EDCDDA",
"zX c #E9CAD5",
"xX c #F8C9D9",
"cX c #EBD5D4",
"vX c #ECD9D7",
"bX c #EBDADB",
"nX c #E8D5DA",
"mX c #F2D2DE",
"MX c #F1DCDB",
"NX c #F7D8D4",
"BX c #F6E9D6",
"VX c #F2E5CD",
"CX c #C9CEEA",
"ZX c #ECD9E2",
"AX c #F4D5E2",
"SX c #FCD4E3",
"DX c #F3DBE5",
"FX c #FADAE5",
"GX c #FDDEEA",
"HX c #F5DDEA",
"JX c #FEE2ED",
"KX c #F5E5E9",
"LX c #FEE4F2",
"PX c #FFE9F5",
"IX c #F2ECE7",
/* pixels */
"cXcXbXbXZXZXZXZXbXcXcXkXkX4X2X$X%X%X%X$X1X4XjXkXgXgXfXyXfXgXfXfXyXuXxXuX_.H.H.`.L._.wXOXH.k.|.tXlX9X.XXX9XlXAXAXHXLXLXLXGXLXLXGX",
"cXcXnXbXbXbXbXbXvXMXNXkXgX2X;X$X4X4X4XjXjXkXNXNXgXgXfXfXfXfXfXfXuXuXuXwX`.t.t.H.t.`.&XeX&XoXtXxXGXAXmXAXSXGXLXLXLXLXPXLXLXLXLXLX",
"vXcXnXnXnXnXbXbXMXMXNXjX2X$X;X2X4XjXjXkXkXkXkXkXgXgXfXfXfXfXfXyXyXuXyXwX_.`._.&XOXrXxXSXSXFXGXGXFXHXGXJXGXGXGXGXGXGXGXLXLXLXLXLX",
"vXcXnXnXnXbXbXbXcXcXhX1X$X$X2X2X4XjXjXkXkXjXjXgXgXgXfXfXfXfXyXyXyXyXyXrXwX&XyXxXxXxXxXSXFXFXGXGXHXJXLXLXLXLXJXGXPXLXLXPXPXJXHXGX",
"vXvXcXcXvXbXMXMXcXdX=X$X$X2X2X2X4XjXkXkXkXjXgXgXgXgXyX-XyXyXyXyXyXyXyXyXwX&X&XyXxXSXSXFXGXJXJXPXLXLXGXJXLXLXGXDXZXnXzXzXzXpX7X7X",
"bXvXcXbXbXMXvXcX1X@X}.}.$X2X2X2X4X4XjXjXgXjX3X3XgX3X-X-XyX-X=X=XrXwXwXrXwXOXOX&XxXxXSXSXAXmXnXnXaXpX7X7X9X9X7X+XC.C.C.V.C..X.XV.",
"MXvXcXvXMXcXdX,X}.}.}.%X$X2X2X2X2X2X2X2X2X3X3X-X3X-X-X=X-X=X=X*X&X&X&XwXwXqXqXrX&XoX X X.XC.V.V.C.C.C.V.V.C.C.C.9X9X7XC..XaXaX9X",
"BXbXvXvXvXcX,X}.'.}.%X%X$X$X;X2X2X2X2X2X2X2X3X3X-X-X=X=X=X=X*X*XrX&X&X&XqX&XqXrXeX|.M.l.m.V.C.C.7X9XaXaXaXaXnXZXKXKXaXC.C.9XpX.X",
"vXvXvXcXdX,X}.}.}.U.U.U.%X%X$X;X$X$X2X2X3X3X3X3X3X3XyX-XyX-X-X-XrXrXwX&X&XqXeXeXoXtXXX+XnXZXbXKXKXKXKXDXZXZXZXZXLXZX.X+XzX7XV.pX",
"vXvXMXcXdX@X}.U.U.U.U.U.U.W.%X$X$X2X2X4X4X3XgXfX-X3XfXfXfXyXyXyX&X&X&X&X&XqXqXeX8XtXXX@XmXKXZXKXKXHXDXZXZXHXHXHXlXaX+XpXHX9XC.aX",
"vXMXMXcXdX}.].I.U.U.P.P.U.W.%X$X;X2X4X4X4X4XfX3X3XfXgXgXgXyX-X=X&X&XwXwXrXrXeXeXeXtXXXXXlXKXDXKXLXHXDXDXHXLXLXLXzX9X+XnXLX9XN.9X",
"vXMXMXcX1X}.I.I.P.P.F.P.U.W.$X$X2X2X4X4X4X4XfX3XgXgXgXfXyX-X*X*X&XqXrXrXrXrXeXeXeX8X X XpXFXJXJXLXHXAXZXGXLXLXJXAX9X.XlXLX9XN.7X",
"vXMXMXhX,X].I.P.P.P.P.P.U.%X;X2X4X4X4X4X4X4XgX3XgXgXyX-X=X*X*X*X&X&X&XqXqXqXqXqXeXoX X'.XXmXPXJXHXAXlXZXGXLXLXGXLX9XC.aXDXpX+X9X",
"vXvXvXdX}.I.I.P.P.P.P.P.U.W.$X;X2X2X2X2X3X3X-X-X-X=X*X#X#X#X#X#XOXOXOXOXOX&XeXrXrXeXoX|.|.zXLXGXAXAXAXHXLXPXLXLXLX7XN..X7X.XN..X",
"cXvXcX1X}.I.D.P.F.F.P.P.U.W.W.%X%X%X%X%X%X%X%X%X#X].].K.K.L.L.G.k.k.k.k.H.!.OX&XeXqXeX|.^.8XSXlXAXAXAXHXGXGXHXAXAX.Xm.N.m.l.m.m.",
"cXcXcX,X].D.D.P.F.F.P.P.U.U.U.U.U.U.U.U.U.U.].]./.K.K.G.f.e.=.=.X.' ' ' @.w.k.^.oXoXtX|.k. XzX9XzXzXlXlXzXdX9X8XXXM.m.m.l.m.|..X",
"MXNXdX'.I.I.I.D.J.F.F.P.K.D.J.K.S.S.G.G.J.J.J.G.f.G.G.f.*.[ R m z z z F ' +.w.w.~.XX8X8X|.M.m.m.m.m.l.l.M.~.~.M.M.k.M.8XdX9XpXmX",
"@X@X Xz.h.J.I.D.J.D.J.K.K.J.S.J.f.f.f.e.e.e.f.f.t.e.e.*.X.R z h _ X.0.r.k.k.M.~.~. XXX|.M.j.m.N..X.X+X@XdXmXxXzX|. XtXFXJXDXDXPX",
"^.J.h.d.d.h.I.D.U.J.D.D.f.=.&.*.| *.*.=.w.f.G.L.`.L.H.e.*.X._ _ _ q.k.^.~.(.|.XX|.XXXXXX|.XXtXlXlXnXmXFXJXLXSXzXM.XXzXGXJXJXJXKX",
"~.z.d.d.d.h.J.D.J.h.4.=...[ R R | [ | *.f.f.H.`.G.G.H.e.@.` _ _ F ' 0.j.M.^.).|.M.~.).|.|.8XzXSXLXJXJXJXJXFXtX|.M.8XSXJXJXPXJXDX",
" X~.h.d.d.h.h.h.d.=.} } [ [ _ [ $.{ [ | =.e.w.=.=.e.f.w.` z z z z z F X.w.k.^.).M.^.(.(.(.|.XX8XAXDXFXGXGXmXtX'.M.8XmXAXAXFXFXmX",
"@X~.j.d.d.d.h.h.d.$. . .{ { { { ..W n { $.$.@.*.e.f.f.e.` z z z z l t l ' w.k.M.M.(.XXoXoXXXoXXXmXAXFXGXGXFXzX8X X9XlXlXlXmXAXmX",
"8X'.j.d.d.d.d.g.3.$.......{ { n M x j n [ | =.f.G.G.f.*.` E h z z l t l F q.r.k.r.k.~.OXOXXXXXXXAXGXJXGXFXFXAXlXmXFXGXJXJXJXLXPX",
"dX Xk.d.d.d.d.d.{ { {  .$.{ K b x g g k v R ..G.=X#XG.e.*.` ` R F F z F _ +.r.k.r.k.(.OXqXqX0XoXmXFXGXFXFXFXGXFXFXFXFXGXJXGXGXJX",
"mX8XM.d.d.d.d.d.n { .. .M g p e p 3 g j k W ;.K.=X*X#XG.*.` ` ` ' _ _ _ @.y.r.r.k.Q.!._.qXoXOXtXSXJXJXFXAXFXFXFXJXGXGXGXGXGXFXAX",
"mXdX X~.z.h.d.1.{ { { n g 3 < < g g g k R } f.].%X=X*X/.e.*.] @.@.' ' ' @.y.r.k.k.!.!.OXqXOXOXeXzXmXFXFXFXGXJXFXJXGXGXJXJXLXJXJX",
"lXzXdX@X'.z.3...$. .v g 3 < 3 g m k k v W ..f.U.#X*X*X#XL.e.*.*.*.@.@.@.y.r.k.k.Q.!.(.OXqXXX(.|.SXGXJXJXJXJXJXFXJXJXFXAXmXmXzXdX",
"lXzXdX@X'.g.1.....Q k 5 5 g k m m m m R Q &.f.J.K.#X#X#X/.H.e.w.e.w.y.w.t.t.k.k.Q.!.(.|.0XXX^.^.xXmXzXzXpX9X@X+X'.V.N.l.j.d.0.+.",
"cXzXpX'.d.1.1.3...W k 5 h k v v m n R R } &.4.S.F.K.K././.L.H.u.u.t.t.t.t.H.H.H.!.(.(.|.0XXXM.k.M.j.d.0.$.o.O.O.O.J J J _ _ D F ",
"cXdX@Xz.$...$.d.....Q W W R R R R [ | | %.-.7.S.K.K.K./././.`.H.u.u.u.u.Q.Q.Q.Q.!._.(.(.8XXX^.k.X._ F b b x A D K K D J { X.X._ ",
"dXdXpXI.1. ...3.3.3.3.=.=...| | | *.=.*.%.-.S.F.W.:X:X/././.`.H.u.u.u.H.`.`.`.!.!._.~.).8X8X~.k.' D m D D D D J D D D D D D m z ",
"dXcXdX{.d.....3.3.3.4.4.;.=.%.| *.=.;.%.%.-.S.K.#X#XK././.`.H.t.u.u.u.H.`.`._.!.!._.~.~.8X8X|.m._ m l b b b x b D D b D D D n m ",
"pXdXcXdXz. ...h.3.3.-.&.&.&.:.4.;.4.-.>.^ &.S.K.#X#X:X/./.`.G.e.*.*.e.G.L.Q.`._.!._.(.|.XX8X Xz.J b x l j k c c M M M n n n m g ",
"dXpXpX,Xc.$...3.=.=.&.&.&.&.:.-.:.-.&.^ ^ &.S.K.#X/././././.`.G.e.*.*.e.G.H.Q.!.!._.(.(.XX8X Xz.b x j j m M ! ! N ..1. .c j j g ",
"pXpXpX@Xz.$...3.=.&.| %.&.:.-.-.:.&.%.^ >.-.S.K.K.K.K.K././././.f.=.*.*.e.k.Q.!.!.(.(.(. X7X XN.#.#.#.$.1.d.g.g.c.,X,Xd.j 3 3 3 ",
"+XaXdX'.$.{ ..=.=.| ^ ^ &.-.-.:.&.%.^ ^ %.4.S.S.S.G.G.G.L./.`.G.f.e.*.*.y.e.H.Q.!.(.(.|. XXX XV.V.'.'.{.{.}.}.}.5XBXVXh.N g g g ",
"pXzX+X#.l K $.=...} Q ^ &.-.-.:.&.^ ^ ^ %.-.;.;.;.=.=.f.G.G.e.*.e.e.e.w.*.w.t.Q.!.).(.|. X X X'.@X@X,X,X,X>X>X>X}.5X5Xg.N j j 3 ",
"nX+X#.p e { $.$.| Q ~ ^ &.:.:.&.&.^ ^ ^ ^ ^ E E ` ` | *.w.=.@._ *.e.f.e.y.y.r.k.Q.^.~.|.|. X+X+X{.}.}.}.[.[.[.[.R.>X[.g.N 5 1 1 ",
"9Xs.s e l K { $.| Q Q ^ | &.&.&.&.^ ^ ^ ^ E h 5 h E R _ ` ` ` ` @.w.f.e.w.w.w.r.k.M.^.~.'.'.+X@X{.{.[.[.R.T.R.[.[.>X[.g.! g g c ",
"l.b e b { b m ..} Q Q Q } ..&.%.} ^ ^ } | E h h 2 h z z z R ` *.@.w.f.e.w.w.w.y.k.k.M.N.N.V.+X@X{.[.[.[.R.T.R.[.T.R.[.x. .{ g.,X",
"x p K V.d.g g ..W W Q Q ^ } } } ^ ^ ^ ^ | } R k h h h t h z ` +.@.*.w.e.r.w.y.+.r.k.M.N.N.'.+X{.{.R.T.T.T.Y.T.R.R.>X>Xg.N  .{.BX",
"p j d.'.g.M M ..W W Q [ ^ ^ } } E ~ ~ Q } } R R z z h h z R ' +.+.y.w.w.w.y.y.y.w.j.l.m.N.V.'.'.{.T.T.T.Y.T.T.R.R.T.Y.g./ N #.1.",
"1 N g.c.1.{  . .! W Q Q Q Q Q Q E E ~ Q } } [ [ R R _ R _ _ X.+.+.$.y.q.@.@.q.y.w.j.l.m.N.V.C.V.v.v.Y.Y.Y.Y.Y.Y.Y.x.c.g.N j p > ",
"4 N g.g. .N  .! ! ! ! ! ! W W W v E ~ Q Q Q [ | R _ _ _ _ _ ' X.X.@.@.' _ _ X.0.j.j.l.l.z.V.V.V.v.v.v.Y.Y.Y.T.T.v.v.Y.x.N 3 3 3 ",
"3 B 1.5. ./ / / ! ! ! W W W W W v v v k k k k m g g l l l z F _ X.X.X._ F F ' q.j.j.j.j.l.V.{.{.>X>X>X>X>X>X>X>X>X[.>X{.1.j f f ",
"4 7 2.x.2.( / / ! ! ! W W W M M v k h 5 2 2 < < < e t g l z F ' X.X.X.' _ _ X.+.r.j.j.j.l.V.<XsXhXhXVXVXVXVXVXhXBXhXhXhXc.K > 1 ",
"4 B 5.6.2.( ( / / ! ! W W M M n v k 5 < < 2 2 2 t g g l l m D ' X.+.+.+.X.X.X.X.0.j.l.l.l.V.<XhXVXVXBXBXBXBXBXVXBXVXBXBXc.j * @ ",
"7 <.6.5.) ( ( / / ! ! ! W M M M v j 5 5 g k k k l l l l l z m D X.X.+.+.+.X.X.X.+.d.j.j.a.l.C.<XBXBXBXBXBXBXBXBXVXVXPXIXg.; O @ ",
",.6.6.<.<.) ) ( / ! N N N N N c c j 5 g c v k 5 2 2 < 2 t h z R X.o.+.+.+.o.o.o.q.a.a.a.j.j.a.s.sXnXIXIXIXIXIXsX+XsXIX<Xf + + @ ",
"5.6.5.) ) ) ( (  . .N N N N N N c j g j v v k g g t t h h R R ` X.+.+.+.+.o.o.o.9.0.0.0.j.B.0.9.B.Z.sXaXnXIXZXsXb.sX+XH # + O O ",
"E.5.<.) ) ( ( /  . .N N N N N c j j j j v n v m v v v R _ [ | @.@.+.q.q.+.o.o.o.o.9.o.9.B.B.9.D P Y p.b.Z.sXZ.b.p.Z.Y O + O O O ",
"6.<.) <.) (  .N ..2. .N c N N c j j j c n M W [ { [ [ [ [ [ | @.+.q.0.0.q.o.O.O.I O.O.9.j.j.O.A P P P Y p.s.p.Y Y S = . O O + O ",
"<.B ) <.( (  ./ 2.1.1.N c c c j g j j c n M { { { { [ [ _ _ _ { X.o.0.0.+.O.D D D O.O.9.j.j.O.S p.p.P C P T P T P * . * $ . o . ",
"<.) ( ( / N  . . .g.g. .x j j j p g g j c M { { { { [ _ _ _ _ { { O.o.o.O.D F A A I O.9.j.a.9.U s.n.8.V C G G T C $ o $   . * . ",
"( <.( / / / N  . .g.b.1.x f f p p 3 p p j b b n K D D n D D D D D D J J D D A A D I O.9.a.a.9.U n.6Xn.Z V C C T 8 & X     . $ * ",
"B <.( B  . .N L L l.V.s.x f p p 3 3 > p g x b x b b x l l l l l b A A A A A A D D I I O.r.a.9.U A.CX6XP C C Z P & &     &   o a ",
"B /  .L N N L #.L s.l.#.H d p , > > , > p g g g g g g p p p p p p s l l l l A D D D I 9.0.0.9.U A.CXiXi.V V C V & % X %     8 P ",
"4 N 2.N N L L H x #.p.Y d f i 4 , ; ; > > p p p p p e e e e e e p s l l l x A S D D I O.9.9.I S A.CXCXn.Z V Z a $ % X %   X 8 Y ",
"# 3 N L L L H d d T Y H a i i u , ; ; ; ; , > > > q q q q e e e s s l x x S S D I I I O.9.O.D A n.CXCXA.G Z V 9 $ % % $   o u p.",
"# # 4 L Y d i d C P P d u u u u , ; ; ; ; ; ; ; : > q q q i p p s s l x x A D J I I I O.9.O.D s n.iXCX6X8.Z a 9 $ X % $ . o a s.",
"* O * f H i 0 a d C C a u u u u , , : ; ; ; ; = : : q q q i i p p s l x S S D J I I I O.O.O.A s n.6XCX6X8.G a 9 $ X o $ . o a s.",
"* * * * = i u 8 u a a u u u u u q > > , ; ; : , : : : 0 0 q q i i s s x S S J I I I I O.O.I A s p.6XCX6Xn.P V a $ X o o . o i p.",
"# * * O * = 8 8 8 u u u u u u 0 > > q , : : : q : : : 0 0 0 w q i i s x S S J I I J I O.O.J l r 8.6XCXCXA.8.Z u $ o o o . . 0 Y ",
"* @ O * * * = w u u a a u u 8 = , > q , : : 0 q 0 0 0 0 0 0 w w i i s x S S J I J J I I I D s w 8.n.CXCX6X8.C w & o o o . . = H "
};
