/* XPM */
static char *b343b9eac9c84fa5cf497c6911e44d34fNlvWekXFppgkek3[] = {
/* columns rows colors chars-per-pixel */
"64 64 43 1 ",
"  c black",
". c #181818",
"X c gray11",
"o c #182118",
"O c #202020",
"+ c #212921",
"@ c #282828",
"# c #2C2C2C",
"$ c #293121",
"% c #293129",
"& c #313929",
"* c gray19",
"= c #343434",
"- c #313931",
"; c gray22",
": c #044000",
"> c #044C00",
", c #045800",
"< c #046400",
"1 c #047000",
"2 c #394A39",
"3 c #425239",
"4 c gray25",
"5 c #484848",
"6 c #4C4C4C",
"7 c #4A5242",
"8 c #525A4A",
"9 c gray33",
"0 c gray36",
"q c #5A6B52",
"w c #637352",
"e c #646464",
"r c #6B7B63",
"t c gray44",
"y c #7C7C7C",
"u c #738C6B",
"i c #849C7B",
"p c gray55",
"a c #989898",
"s c gray66",
"d c #B4B4B4",
"f c #C0C0C0",
"g c #D0D0D0",
/* pixels */
"& o          o&:3        7+o                         wa iqr   ai",
"wqw         :$wwai  iu3 ::&$o     uui         u   &upasfuiipuiii",
"siswq$%  pi:2rui3srasuuiii:&,  &uuiru2ais r q8ri<7aqsifddfdrisfw",
"uria&i+uu7u<riifdfqdua1iisiwqo3uudfdsiuua<di3q8wriiifdgfdiaasiaa",
"dssaarqiiqquiuuiddsfuuifauiu333wuiaffddsrfi3rwuuasaaudigdffdsssd",
"asddsiassypiui3aaadiuawsisir<wqsufdfsdffuaiiwrw,iqddafafsgsdradd",
"dadfiuidsaias3qqfidriswuidai:qiauiifdisiaidi$3q3dussiasfiadrddaa",
"i,ddsisidsiuuuiuiw>2ssidsssauuiasafdpsuiiuuu8r32wipusqiaaaffsgfu",
"rsiwsiaasausuwuuauiisifddgsuaaiaiass<ayqrw8828tuuiiiasfsuasddasu",
"iassaiaauiisriuaiiiasssfsfdsuqsuaypy138yiur<<q0piiyprsriqssdqsuu",
"1adaaisi3uypwiuqi3aasisadsssupt0yyeq3wypqqqrurtiuuruwsau8suauaaw",
"payaisarqurwruar2ur7yiquiuaitw6yu883qq8e4rr&1rrqtipuiasfufaswi:u",
"u8piriiqrw3qyuuauiau8r88yuuy563tr<3,q,yew0rwu3wqpiieyswsyiaiwuir",
"uwrrwuiuuq<wyiuiu8yr8rprtru7;5$738<,8rteuer75ruipuu6yrya4qtiqari",
"uaaaurauy3ryrprrrq&qr2wwrq3:>2;&:8q8euytertr-r3ruwu2q78erqwwuwuq",
"prarrpipru84ter&>2&q7&qr8>&23$6+>3078tuuy7704qqwy8r8$->245etpiuw",
"rpuuuiprrrwpu7-3>,>3333&:>>%5&4:<qrrwrte4=9tt77t92q3$-%#44&repre",
"7w3uuut88wuyrq678qw$3w3633,4;:78<<quuwtt055e03842:2>-:+%5qquyiip",
"rwwapr8ywrrw7qe99677>&-e5476-+>82wwuiyepy209274%,&>$+>-583ytqiiu",
"wrwrruw2wq,33w455;2838:%#5$->:%%$w2uispeww8=%>%#+::+:%4208aapprp",
"wwrw&wrq72>7386;4-:2>2:7902+$>%%3rrrraieqw$++:@@o::$:40qepaaauuu",
"rrq731qu8<,-2;2>2:o+&::-;96#&>3,3uppirpr<82$:oOo:+%;;460tprpruuu",
"$<q7wrretq352&2&2:@*>7898$54:+3<,r3rit872-$>o:+:>+:&6w0rtuuiarww",
"<q8qu90qt6,24>+2$+*=@5##5:++:%982qquuwr3><,>$:$>>o:%-&0y2ru7ruwq",
"<8wr8etue5395:+88#54;44@+:;+:$48813pu&w>>2,>$:+>>o:2;70truu57ww<",
"2&q8qq6000q77$:-7+@#2@*;+>2:&<2><82r8-8$3<,,:oO:>:+2**;4yw8r32w3",
"3<qyrur69e9-8>%7>:@44@;:+,,&213<87eutqw8>2+::oOo:+:>-#w08wyr0q8q",
">q4qrtq9562,34%>:764;=;%#22<311qrq40&;r3,2>:::o::>:-4%q7>q<3328q",
",80ww470e4>,%2%::56##=;5423<&<3,,8=736q3,2,:::o::>:O+o:3>3,>3:>,",
"-8q,&r&-8-234>>:%2&%+%:38,3qq13&-e&,32>>:+::::o+:::o:::>&,>&>$88",
">qr38057$22552:-=&+:%4-2>3r8wq<8$7>$22>o:,:++::@++:o:+o%+&,3750,",
"q27rt77>%7$$+2-=#OOo:2;-<rwq18,8@%>>>->,>$o::::%@Oo:::+O%>>>8;7-",
"yy8rtq52+4@3+:$OOOOO:<27<q<r8,,&4*&>:+:>:+o::::%@Oo:::+O@>2280r0",
"wp82e9>%:%@+:2:+@OOO$+,2>73>>3><&%o:oOoo:OOo:+o+:o+>>:::+%*955e8",
"wur2y9:&::5$%4%*#O@+:+&2&3w<23<,,::o@+OOoO%@%%O:$:>>$++%#;eu&0e<",
"wepy852:%;#44:%+@OOO%>2<25788,$:$$:+O:OO:::%;,++#*-2=%>%569r00ue",
"ueueuq>&%54#-:oO@OO#@23q-9q<22::@$:+o:OO:::&7,55#4;277,%*4=rp0&e",
"4yu33&&+:&@O+%:%@*#@43<8qq>:+$::o:oO:oOO:$:20959398-$2794*9tae0y",
"euy9qt2;63*@O:+#*=;-2<7>8<,$::o::o:o:OOo>+224tqe7q>>qq&$429tyyey",
"42,-34e0;64:o:+#=#5428,>,,>>::::o:oOOOO>+=2,8qw&3q22377-846e;rt7",
"5-,78;9455;:o:%#44=;$qq>,,2>$:::o:OOOOO>+*%8;7q2rq>q<8&&&7044wq:",
"438qe$-4::++OO*@4@#88->,>+2&+>o:+OOOOOOo>2279e8&w3<>,we8q8;893$-",
"57>382:+:$@:OO@*5#+>,<22&2->%$O::o::O@O+>>283&<qrq33>%=*8$+52%25",
"22&:&;4;-##O@@45=@3>,,<,24->$:Oo:o:oOOO+:+,3quq31w8<,23932#-,2&4",
":>7>:4;##O@O@@*55%:>32,,2%>-%:%$:o:OOOO@:-3q7uwwq3<<,<3-:+o:>%:-",
">3&32#+O@O@OO+42382,$,&,$:>2&>-:$:oO+:+O+&,8:--<2>22<>>&>o:>:+::",
"888-:o:o@O@O@+->2-,>>>2<,,><7,24%:oO:$+:+:$3>338-,,,,>>+,>>:oO::",
":%86+:o:@O:%;:++,><<&><12><38<>+O+>+%*+>2-2>8qe83$>><,>>>:::OO:$",
"27:--:$:$O:-4:2%3>3<>><<>3<,2>8@#2>%@@+2,$&:8<&,2&>><,>>>:::oO:$",
"22:2:::+:+@#%:,78$><<,<,,,>qw,2#->$>292,237,8<3,>,,,>>$+::o::oo:",
"+-+->:oO:+#@+:3,&,,>,<1<22>w88qq8,2,:$2>>3>>33%:2,>>>:%@+::o::O@",
":$:o::@@o:%+&+#+:3,:+<<<>2&,2-374646q>6;8q8<qq3522>+$:$:Oo:::oOO",
":o:o::@@O:*O:+%7>3,:&<<<>2>,30qut4069>9yiu8urwq92->+@:$:Oo:::oOO",
"O+:o::OOO+#O-2>2,,,:$<,,<<>28<20q,27788wuiurwrew,$:+oo:o+:o:oo:o",
"OOo:oO@O@@@@>::&2%&><&,><<&,qq8t3,70rttrwru3w7w&$:+:::o:oo::::o:",
"@OOo:@OO@O*@+>+,,$,<,>>2>>2+29%:$8e6e8qq7wwur,<$:o>>:oo:o:oo::.o",
"@OOO:@OOO+@;+>2,,:,<222+:>,$>4-:+89;ew<2qpuwq,,-2+,>:oO:o:oo::.X",
":OOO+OO@@5#@@2,&&:>>:+>:$>>,-%>-45;>%*2$88w8-,>-6->>::o+o::::ooO",
"OOO@OO@O@4#7683>-%$23>3$>22>%++58437478$58,w82,22+&>+o:o::o:o::o",
"OO@%:OOO;#%:$73,$,>::>>87%4-#=45=;53754>2e<w<&3,$:>>oXoXooOO@@o:",
"@@**:+#@#6087&22>,>::3,8>45;@;@@@7%:>452$8,<<>>>o:>:oOOOOO@@##+:",
";;9e09=;ett4tee950OyO=@#54*496eeeO.>*:::t5O#56@694@509e699044#O*",
"960ete9909559tyyyppt006;6tyt9eyppape544469esgse9e90psyydgfp9;;55",
"46ysssspt949tyapyasaypy9ysda0easddspye5;epe9e059pytyt0tyyyy9;0y9"
};
